<svg width="52" height="69" viewBox="0 0 52 69" fill="none" xmlns="http://www.w3.org/2000/svg">
<path d="M47.7996 20.0918C47.5238 19.118 45.5372 13.8107 44.5415 12.282C43.5459 10.7532 41.8971 8.04939 39.0567 6.50391C37.3069 5.55181 36.2164 5.16968 34.2724 4.73438C31.0092 4.00365 29.1495 4.32387 25.9193 5.18891C22.8353 6.01481 21.0314 6.89092 18.7925 9.16703C17.0394 10.9493 16.2012 11.9034 15.1957 14.1923C13.9815 16.9561 13.7935 19.8578 13.2443 23.5503C12.0679 31.4602 11.8932 36.0731 12.767 44.0222C13.4305 50.059 14.0257 53.492 16.0119 59.2311C17.6527 63.9721 19.832 68.5971 21.4218 70.8829C23.0116 73.1687 23.7302 74.7557 26.0334 76.3202C29.2879 78.5309 31.9631 78.6799 35.8883 78.4125C39.3488 78.1767 41.4657 77.6271 44.3419 75.6886C47.8311 73.3369 48.8757 70.7882 50.7261 67.0093C53.4327 61.4821 52.1018 46.0031 51.9171 43.1469C51.6218 38.58 48.6454 23.0789 47.7996 20.0918Z" fill="url(#paint0_radial_2158_14506)"/>
<path d="M28.3006 22.8714C28.7499 24.2657 31.3399 26.397 30.858 26.9022C30.3824 27.4008 28.7169 26.8238 27.4212 26.375L27.3703 26.3573C25.8802 25.8412 25.1768 25.2175 23.9025 24.2886C22.3785 23.1777 21.4455 22.5576 20.3361 21.0325C19.4214 19.775 18.9265 18.9804 18.5588 17.4696C18.1414 15.7549 18.0179 13.0635 18.6312 12.9511C19.2445 12.8388 20.1053 14.6407 21.1207 15.6552C23.4815 18.0137 27.0147 18.8805 27.7233 21.0796L28.3006 22.8714Z" fill="url(#paint1_radial_2158_14506)" fill-opacity="0.6"/>
<path d="M32.8862 29.2977C32.3589 30.6644 29.4121 32.5532 29.9462 33.1162C30.4733 33.6719 32.3556 33.2621 33.82 32.9432L33.8776 32.9307C35.5617 32.5642 36.3627 32.0056 37.8107 31.1977C39.5424 30.2316 40.6016 29.7009 41.8734 28.271C42.922 27.0921 43.4912 26.3383 43.9287 24.8449C44.4252 23.1499 44.6065 20.4335 43.9185 20.2551C43.2305 20.0766 42.2339 21.8133 41.0757 22.7353C38.3833 24.8786 34.3956 25.3858 33.5639 27.5414L32.8862 29.2977Z" fill="url(#paint2_radial_2158_14506)" fill-opacity="0.6"/>
<path d="M20.9062 32.5321C19.4858 32.174 17.2544 29.4774 16.7601 30.0756C16.2722 30.6661 16.9067 32.485 17.4004 33.9001L17.4198 33.9557C17.9874 35.5831 18.6388 36.3106 19.6159 37.6502C20.7845 39.2523 21.4394 40.2395 23.0126 41.3291C24.3097 42.2273 25.1268 42.7012 26.6622 42.9547C28.4048 43.2426 31.1232 43.0939 31.2171 42.3894C31.311 41.6848 29.4665 40.9056 28.4112 39.8675C25.9578 37.4541 24.972 33.5571 22.7316 32.9923L20.9062 32.5321Z" fill="url(#paint3_radial_2158_14506)" fill-opacity="0.6"/>
<path d="M25.4271 64.3508C24.0254 64.1993 21.5383 61.9272 21.1471 62.5635C20.761 63.1915 21.6089 64.8403 22.2685 66.1231L22.2944 66.1735C23.0529 67.6488 23.7709 68.2552 24.8812 69.4014C26.2091 70.7722 26.9652 71.6257 28.6104 72.4539C29.9667 73.1367 30.8088 73.4791 32.3061 73.5156C34.0055 73.5571 36.5765 73.0522 36.5719 72.3681C36.5672 71.684 34.7051 71.1878 33.5606 70.3394C30.8997 68.367 29.4393 64.7844 27.2285 64.5455L25.4271 64.3508Z" fill="url(#paint4_radial_2158_14506)"/>
<path d="M21.4999 49.1456C20.0795 48.7875 17.8481 46.0909 17.3538 46.6891C16.866 47.2796 17.5005 49.0985 17.9942 50.5136L18.0136 50.5692C18.5812 52.1966 19.2325 52.9242 20.2096 54.2638C21.3782 55.8659 22.0331 56.8531 23.6064 57.9426C24.9035 58.8409 25.7206 59.3147 27.2559 59.5683C28.9986 59.8561 31.7169 59.7075 31.8108 59.0029C31.9047 58.2984 30.0602 57.5192 29.005 56.4811C26.5516 54.0677 25.5657 50.1706 23.3254 49.6058L21.4999 49.1456Z" fill="url(#paint5_radial_2158_14506)"/>
<path d="M33.8216 45.1401C33.2327 46.6665 29.9478 48.7786 30.5421 49.4066C31.1287 50.0265 33.2261 49.5668 34.8578 49.2091L34.9219 49.1951C36.7984 48.784 37.6914 48.1594 39.3053 47.2558C41.2355 46.1752 42.416 45.5815 43.8345 43.9836C45.0039 42.6662 45.6389 41.824 46.1279 40.1562C46.6829 38.2632 46.888 35.2302 46.1217 35.0317C45.3555 34.8333 44.2433 36.7734 42.9521 37.804C39.9503 40.2001 35.5074 40.7708 34.5785 43.1783L33.8216 45.1401Z" fill="url(#paint6_radial_2158_14506)"/>
<path d="M35.5755 60.1701C34.9866 61.6965 31.7017 63.8086 32.296 64.4366C32.8826 65.0565 34.98 64.5968 36.6117 64.2392L36.6758 64.2251C38.5523 63.814 39.4453 63.1895 41.0592 62.2859C42.9894 61.2052 44.1699 60.6116 45.5884 59.0137C46.7578 57.6963 47.3928 56.854 47.8818 55.1862C48.4368 53.2932 48.6419 50.2602 47.8756 50.0618C47.1094 49.8633 45.9972 51.8034 44.706 52.834C41.7042 55.2301 37.2613 55.8008 36.3324 58.2084L35.5755 60.1701Z" fill="url(#paint7_radial_2158_14506)"/>
<defs>
<radialGradient id="paint0_radial_2158_14506" cx="0" cy="0" r="1" gradientUnits="userSpaceOnUse" gradientTransform="translate(25.3214 -4.72767) rotate(66.9188) scale(58.2974 70.2799)">
<stop stop-color="#EDD6AA"/>
<stop offset="1" stop-color="#995F1B"/>
</radialGradient>
<radialGradient id="paint1_radial_2158_14506" cx="0" cy="0" r="1" gradientUnits="userSpaceOnUse" gradientTransform="translate(22.6721 15.7061) rotate(76.6974) scale(10.5946 5.55972)">
<stop stop-color="#280F0C"/>
<stop offset="1" stop-color="#90673A"/>
</radialGradient>
<radialGradient id="paint2_radial_2158_14506" cx="0" cy="0" r="1" gradientUnits="userSpaceOnUse" gradientTransform="translate(36.3007 25.322) rotate(49.3067) scale(6.67538 12.0302)">
<stop stop-color="#190305"/>
<stop offset="1" stop-color="#B48549"/>
</radialGradient>
<radialGradient id="paint3_radial_2158_14506" cx="0" cy="0" r="1" gradientUnits="userSpaceOnUse" gradientTransform="translate(21.6738 38.898) rotate(-55.0241) scale(8.38431 34.2399)">
<stop stop-color="#946A3B"/>
<stop offset="1" stop-color="#321810"/>
</radialGradient>
<radialGradient id="paint4_radial_2158_14506" cx="0" cy="0" r="1" gradientUnits="userSpaceOnUse" gradientTransform="translate(29.8007 66.8285) rotate(114.348) scale(5.5579 9.14614)">
<stop stop-color="#5B3B23"/>
<stop offset="1" stop-color="#936A3B"/>
</radialGradient>
<radialGradient id="paint5_radial_2158_14506" cx="0" cy="0" r="1" gradientUnits="userSpaceOnUse" gradientTransform="translate(24.5991 51.3048) rotate(119.261) scale(5.48736 7.84819)">
<stop stop-color="#3C2014"/>
<stop offset="1" stop-color="#936A3B"/>
</radialGradient>
<radialGradient id="paint6_radial_2158_14506" cx="0" cy="0" r="1" gradientUnits="userSpaceOnUse" gradientTransform="translate(39.8948 40.2741) rotate(82.7563) scale(7.78463 12.753)">
<stop stop-color="#391E13"/>
<stop offset="1" stop-color="#91683B"/>
</radialGradient>
<radialGradient id="paint7_radial_2158_14506" cx="0" cy="0" r="1" gradientUnits="userSpaceOnUse" gradientTransform="translate(39.4744 55.8279) rotate(57.3968) scale(6.29565 8.39957)">
<stop stop-color="#412517"/>
<stop offset="1" stop-color="#92693B"/>
</radialGradient>
</defs>
</svg>
