<svg width="111" height="101" viewBox="0 0 111 101" fill="none" xmlns="http://www.w3.org/2000/svg">
<g id="Mask group">
<g id="Mask group_2">
<mask id="mask0_3300_9166" style="mask-type:alpha" maskUnits="userSpaceOnUse" x="0" y="0" width="111" height="101">
<rect id="Rectangle 154" x="0.527344" y="0.201172" width="110" height="100" rx="15" fill="#D9D9D9"/>
</mask>
<g mask="url(#mask0_3300_9166)">
<g id="Group 338">
<rect id="Rectangle 164" x="49.9336" y="56.8177" width="3.38872" height="122.975" transform="rotate(-44.854 49.9336 56.8177)" fill="url(#paint0_radial_3300_9166)"/>
<g id="Group 334">
<path id="Vector 101" d="M56.8455 56.8929C56.5304 58.6483 55.6806 59.6515 55.6806 59.6515L53.8319 58.7691C53.8319 58.7691 52.9496 56.564 53.0605 54.9449C53.1524 53.6028 53.5129 52.2308 54.1037 51.3038C54.5134 50.661 55.57 49.3723 55.57 49.3723C55.57 49.3723 56.4025 51.5898 56.6305 52.644C57.0166 54.429 57.1606 55.1375 56.8455 56.8929Z" fill="url(#paint1_radial_3300_9166)"/>
<path id="Vector 100" d="M55.2707 55.5259C56.0686 57.5131 55.8381 59.1003 55.8381 59.1003L53.3799 59.4551C53.3799 59.4551 51.0676 57.8208 50.1475 56.1092C49.3848 54.6903 48.8783 53.0602 48.8919 51.7245C48.9013 50.7984 49.1614 48.783 49.1614 48.783C49.1614 48.783 51.4306 50.4633 52.3374 51.3753C53.8728 52.9195 54.4727 53.5387 55.2707 55.5259Z" fill="url(#paint2_radial_3300_9166)"/>
<path id="Vector 103" d="M50.8887 57.1518C52.7962 57.363 54.3197 58.3868 54.3197 58.3868L54.6602 60.9872C54.6602 60.9872 53.0913 62.4455 51.4484 62.4931C50.0864 62.5325 48.5216 62.2135 47.2395 61.5296C46.3506 61.0555 44.416 59.7876 44.416 59.7876C44.416 59.7876 46.029 58.3949 46.9045 57.959C48.3868 57.2211 48.9812 56.9407 50.8887 57.1518Z" fill="url(#paint3_radial_3300_9166)"/>
<path id="Vector 102" d="M52.4256 53.7987C54.0139 54.7692 56 58.08 56 58.08L54.4188 60.2876C54.4188 60.2876 52.4383 60.3549 50.99 59.73C49.7893 59.212 48.2164 57.6258 47.3385 56.4751C46.7298 55.6773 45.8627 53.5887 45.8627 53.5887C45.8627 53.5887 47.7558 52.9643 48.6712 52.9197C50.2212 52.8443 50.8373 52.8283 52.4256 53.7987Z" fill="url(#paint4_radial_3300_9166)"/>
</g>
<g id="Group 333">
<path id="Vector 101_2" d="M64.5775 62.5253C64.0263 64.6548 62.5625 65.8302 62.5625 65.8302L59.3964 64.6356C59.3964 64.6356 57.8962 61.8815 58.0963 59.9064C58.2621 58.2691 58.8889 56.6119 59.908 55.5136C60.6147 54.7521 62.435 53.2399 62.435 53.2399C62.435 53.2399 63.8498 56.006 64.2346 57.3107C64.886 59.5197 65.1287 60.3959 64.5775 62.5253Z" fill="url(#paint5_radial_3300_9166)"/>
<path id="Vector 100_2" d="M61.7324 60.7097C62.5508 63.1354 62.2051 65.1282 62.2051 65.1282L59.3564 65.727C59.3564 65.727 56.7761 63.8376 55.8031 61.7632C54.9965 60.0435 54.4956 58.0442 54.5788 56.3788C54.6365 55.224 55.0379 52.6956 55.0379 52.6956C55.0379 52.6956 57.5662 54.6452 58.5644 55.724C60.2545 57.5506 60.914 58.284 61.7324 60.7097Z" fill="url(#paint6_radial_3300_9166)"/>
<path id="Vector 103_2" d="M56.0678 62.4277C58.4858 62.8714 60.4958 64.2615 60.4958 64.2615L61.1632 67.4445C61.1632 67.4445 59.3246 69.056 57.2631 68.9517C55.554 68.8652 53.5571 68.3246 51.882 67.37C50.7205 66.7081 48.1712 64.9819 48.1712 64.9819C48.1712 64.9819 50.0714 63.4542 51.1321 63.0126C52.9282 62.265 53.6497 61.984 56.0678 62.4277Z" fill="url(#paint7_radial_3300_9166)"/>
<path id="Vector 102_2" d="M57.4351 60.0973C59.7485 61.4367 62.8551 65.545 62.8551 65.545L60.8755 67.8937C60.8755 67.8937 58.1209 67.7055 56.0379 66.7858C54.3111 66.0234 51.9563 63.9716 50.6151 62.5186C49.6851 61.5112 48.2632 58.9714 48.2632 58.9714C48.2632 58.9714 50.8391 58.5014 52.1109 58.5728C54.2643 58.6937 55.1217 58.758 57.4351 60.0973Z" fill="url(#paint8_radial_3300_9166)"/>
</g>
<g id="Group 332">
<path id="Vector 101_3" d="M71.5365 68.2589C70.6925 70.4579 69.0689 71.8316 69.0689 71.8316L66.0728 71.0774C66.0728 71.0774 64.9549 68.5386 65.4271 66.5419C65.8186 64.8867 66.6728 63.1481 67.8418 61.9126C68.6523 61.0559 70.6783 59.2973 70.6783 59.2973C70.6783 59.2973 71.7092 61.8598 71.9134 63.1074C72.259 65.2198 72.3804 66.0599 71.5365 68.2589Z" fill="url(#paint9_radial_3300_9166)"/>
<path id="Vector 100_3" d="M68.9437 66.8418C69.4262 69.1472 68.8062 71.1816 68.8062 71.1816L65.8796 72.1715C65.8796 72.1715 63.5642 70.6438 62.8789 68.7099C62.3108 67.1066 62.0865 65.1826 62.3993 63.5107C62.6162 62.3515 63.3657 59.7755 63.3657 59.7755C63.3657 59.7755 65.6209 61.3704 66.4686 62.3082C67.904 63.8962 68.4613 64.5364 68.9437 66.8418Z" fill="url(#paint10_radial_3300_9166)"/>
<path id="Vector 103_3" d="M63.053 69.3352C65.4058 69.444 67.2208 70.5526 67.2208 70.5526L67.4481 73.6338C67.4481 73.6338 65.3902 75.4941 63.3464 75.6744C61.6521 75.8239 59.7331 75.5604 58.1924 74.8398C57.1241 74.3401 54.8171 72.9708 54.8171 72.9708C54.8171 72.9708 56.9249 71.1856 58.0448 70.5991C59.941 69.606 60.7001 69.2263 63.053 69.3352Z" fill="url(#paint11_radial_3300_9166)"/>
<path id="Vector 102_3" d="M64.7396 66.8235C66.8644 67.8397 69.3992 71.5069 69.3992 71.5069L67.099 74.1215C67.099 74.1215 64.3749 74.3138 62.4221 73.6842C60.8033 73.1624 58.7354 71.4416 57.5968 70.178C56.8073 69.3019 55.7381 66.966 55.7381 66.966C55.7381 66.966 58.3745 66.1422 59.6344 66.0379C61.7676 65.8614 62.6147 65.8072 64.7396 66.8235Z" fill="url(#paint12_radial_3300_9166)"/>
</g>
<g id="Group 331">
<path id="Vector 101_4" d="M77.849 74.6056C77.005 76.8045 75.3814 78.1782 75.3814 78.1782L72.3853 77.424C72.3853 77.424 71.2674 74.8852 71.7396 72.8886C72.1311 71.2334 72.9853 69.4948 74.1543 68.2593C74.9648 67.4026 76.9908 65.644 76.9908 65.644C76.9908 65.644 78.0217 68.2065 78.2259 69.4541C78.5715 71.5665 78.6929 72.4066 77.849 74.6056Z" fill="url(#paint13_radial_3300_9166)"/>
<path id="Vector 100_4" d="M75.2562 73.1879C75.7387 75.4933 75.1187 77.5277 75.1187 77.5277L72.1921 78.5176C72.1921 78.5176 69.8767 76.9898 69.1914 75.0559C68.6233 73.4527 68.399 71.5287 68.7118 69.8568C68.9287 68.6976 69.6782 66.1216 69.6782 66.1216C69.6782 66.1216 71.9334 67.7164 72.7811 68.6543C74.2165 70.2422 74.7738 70.8825 75.2562 73.1879Z" fill="url(#paint14_radial_3300_9166)"/>
<path id="Vector 103_4" d="M69.3655 75.6819C71.7183 75.7907 73.5333 76.8993 73.5333 76.8993L73.7606 79.9805C73.7606 79.9805 71.7027 81.8408 69.6589 82.0211C67.9646 82.1706 66.0456 81.9071 64.5049 81.1864C63.4366 80.6868 61.1296 79.3175 61.1296 79.3175C61.1296 79.3175 63.2374 77.5323 64.3573 76.9458C66.2535 75.9527 67.0126 75.573 69.3655 75.6819Z" fill="url(#paint15_radial_3300_9166)"/>
<path id="Vector 102_4" d="M71.0521 73.1701C73.1769 74.1864 75.7117 77.8536 75.7117 77.8536L73.4115 80.4681C73.4115 80.4681 70.6874 80.6604 68.7346 80.0309C67.1158 79.509 65.0479 77.7883 63.9093 76.5247C63.1198 75.6486 62.0506 73.3127 62.0506 73.3127C62.0506 73.3127 64.687 72.4889 65.9469 72.3846C68.0801 72.2081 68.9272 72.1539 71.0521 73.1701Z" fill="url(#paint16_radial_3300_9166)"/>
</g>
<g id="Group 330">
<path id="Vector 101_5" d="M83.8021 80.5875C82.9581 82.7865 81.3346 84.1602 81.3346 84.1602L78.3385 83.406C78.3385 83.406 77.2206 80.8672 77.6928 78.8705C78.0842 77.2153 78.9385 75.4768 80.1074 74.2412C80.918 73.3845 82.9439 71.6259 82.9439 71.6259C82.9439 71.6259 83.9748 74.1884 84.179 75.436C84.5247 77.5485 84.6461 78.3885 83.8021 80.5875Z" fill="url(#paint17_radial_3300_9166)"/>
<path id="Vector 100_5" d="M81.2094 79.1709C81.6918 81.4763 81.0719 83.5107 81.0719 83.5107L78.1452 84.5006C78.1452 84.5006 75.8298 82.9729 75.1445 81.039C74.5764 79.4357 74.3521 77.5117 74.6649 75.8398C74.8818 74.6806 75.6313 72.1046 75.6313 72.1046C75.6313 72.1046 77.8865 73.6995 78.7342 74.6373C80.1696 76.2253 80.7269 76.8655 81.2094 79.1709Z" fill="url(#paint18_radial_3300_9166)"/>
<path id="Vector 103_5" d="M75.3225 81.665C77.6754 81.7739 79.4903 82.8825 79.4903 82.8825L79.7176 85.9637C79.7176 85.9637 77.6598 87.8239 75.616 88.0043C73.9217 88.1538 72.0026 87.8902 70.4619 87.1696C69.3936 86.6699 67.0867 85.3006 67.0867 85.3006C67.0867 85.3006 69.1944 83.5154 70.3143 82.9289C72.2105 81.9358 72.9697 81.5562 75.3225 81.665Z" fill="url(#paint19_radial_3300_9166)"/>
<path id="Vector 102_5" d="M77.0052 79.1521C79.1301 80.1683 81.6648 83.8355 81.6648 83.8355L79.3646 86.4501C79.3646 86.4501 76.6405 86.6424 74.6878 86.0129C73.0689 85.491 71.0011 83.7702 69.8624 82.5067C69.073 81.6305 68.0037 79.2946 68.0037 79.2946C68.0037 79.2946 70.6402 78.4708 71.9 78.3666C74.0333 78.19 74.8803 78.1359 77.0052 79.1521Z" fill="url(#paint20_radial_3300_9166)"/>
</g>
<g id="Group 329">
<path id="Vector 101_6" d="M89.7552 86.57C88.9113 88.769 87.2877 90.1427 87.2877 90.1427L84.2916 89.3885C84.2916 89.3885 83.1737 86.8497 83.6459 84.8531C84.0373 83.1978 84.8916 81.4593 86.0605 80.2238C86.8711 79.3671 88.897 77.6084 88.897 77.6084C88.897 77.6084 89.928 80.171 90.1321 81.4186C90.4778 83.531 90.5992 84.3711 89.7552 86.57Z" fill="url(#paint21_radial_3300_9166)"/>
<path id="Vector 100_6" d="M87.1625 85.1536C87.645 87.459 87.025 89.4934 87.025 89.4934L84.0983 90.4833C84.0983 90.4833 81.7829 88.9555 81.0976 87.0216C80.5295 85.4184 80.3052 83.4944 80.6181 81.8225C80.8349 80.6633 81.5844 78.0873 81.5844 78.0873C81.5844 78.0873 83.8396 79.6821 84.6873 80.62C86.1227 82.2079 86.68 82.8482 87.1625 85.1536Z" fill="url(#paint22_radial_3300_9166)"/>
<path id="Vector 103_6" d="M81.2756 87.647C83.6285 87.7558 85.4434 88.8644 85.4434 88.8644L85.6707 91.9456C85.6707 91.9456 83.6129 93.8058 81.5691 93.9862C79.8748 94.1357 77.9557 93.8721 76.415 93.1515C75.3468 92.6519 73.0398 91.2826 73.0398 91.2826C73.0398 91.2826 75.1475 89.4974 76.2674 88.9108C78.1636 87.9178 78.9228 87.5381 81.2756 87.647Z" fill="url(#paint23_radial_3300_9166)"/>
<path id="Vector 102_6" d="M82.9583 85.1347C85.0832 86.151 87.618 89.8182 87.618 89.8182L85.3177 92.4327C85.3177 92.4327 82.5936 92.625 80.6409 91.9955C79.022 91.4736 76.9542 89.7529 75.8156 88.4893C75.0261 87.6132 73.9568 85.2773 73.9568 85.2773C73.9568 85.2773 76.5933 84.4535 77.8532 84.3492C79.9864 84.1727 80.8335 84.1185 82.9583 85.1347Z" fill="url(#paint24_radial_3300_9166)"/>
</g>
<g id="Group 328">
<path id="Vector 101_7" d="M95.7044 92.5522C94.8605 94.7512 93.2369 96.1249 93.2369 96.1249L90.2408 95.3707C90.2408 95.3707 89.1229 92.8319 89.5951 90.8352C89.9865 89.18 90.8408 87.4415 92.0098 86.206C92.8203 85.3493 94.8462 83.5906 94.8462 83.5906C94.8462 83.5906 95.8772 86.1532 96.0813 87.4007C96.427 89.5132 96.5484 90.3533 95.7044 92.5522Z" fill="url(#paint25_radial_3300_9166)"/>
<path id="Vector 100_7" d="M93.1117 91.1362C93.5942 93.4417 92.9742 95.476 92.9742 95.476L90.0475 96.4659C90.0475 96.4659 87.7321 94.9382 87.0469 93.0043C86.4788 91.4011 86.2545 89.477 86.5673 87.8052C86.7842 86.6459 87.5336 84.07 87.5336 84.07C87.5336 84.07 89.7888 85.6648 90.6366 86.6027C92.0719 88.1906 92.6292 88.8308 93.1117 91.1362Z" fill="url(#paint26_radial_3300_9166)"/>
<path id="Vector 103_7" d="M87.221 93.6285C89.5738 93.7374 91.3887 94.846 91.3887 94.846L91.616 97.9272C91.616 97.9272 89.5582 99.7874 87.5144 99.9678C85.8201 100.117 83.9011 99.8537 82.3604 99.1331C81.2921 98.6334 78.9851 97.2641 78.9851 97.2641C78.9851 97.2641 81.0928 95.4789 82.2127 94.8924C84.109 93.8993 84.8681 93.5197 87.221 93.6285Z" fill="url(#paint27_radial_3300_9166)"/>
<path id="Vector 102_7" d="M88.9075 91.1168C91.0324 92.133 93.5672 95.8003 93.5672 95.8003L91.2669 98.4148C91.2669 98.4148 88.5429 98.6071 86.5901 97.9776C84.9713 97.4557 82.9034 95.7349 81.7648 94.4714C80.9753 93.5953 79.9061 91.2594 79.9061 91.2594C79.9061 91.2594 82.5425 90.4355 83.8024 90.3313C85.9356 90.1548 86.7827 90.1006 88.9075 91.1168Z" fill="url(#paint28_radial_3300_9166)"/>
</g>
<g id="Group 335">
<path id="Vector 100_8" d="M95.218 95.3665C95.518 96.7999 95.1325 98.0648 95.1325 98.0648L93.3128 98.6803C93.3128 98.6803 91.8731 97.7304 91.447 96.528C91.0938 95.5312 90.9544 94.3348 91.1488 93.2953C91.2837 92.5746 91.7497 90.9729 91.7497 90.9729C91.7497 90.9729 93.1519 91.9645 93.679 92.5476C94.5715 93.535 94.918 93.933 95.218 95.3665Z" fill="url(#paint29_radial_3300_9166)"/>
<path id="Vector 102_8" d="M92.6054 95.3552C93.9265 95.987 95.5026 98.2672 95.5026 98.2672L94.0724 99.8929C94.0724 99.8929 92.3786 100.012 91.1645 99.621C90.1579 99.2965 88.8722 98.2266 88.1642 97.441C87.6734 96.8962 87.0085 95.4438 87.0085 95.4438C87.0085 95.4438 88.6478 94.9316 89.4311 94.8668C90.7575 94.757 91.2842 94.7233 92.6054 95.3552Z" fill="url(#paint30_radial_3300_9166)"/>
</g>
<g id="Group 336">
<path id="Vector 100_9" d="M95.1749 98.9132C95.6272 99.7091 95.6393 100.536 95.6393 100.536L94.6738 101.249C94.6738 101.249 93.6356 100.959 93.1524 100.325C92.7518 99.7987 92.4404 99.1133 92.3576 98.4575C92.3003 98.0028 92.2718 96.9605 92.2718 96.9605C92.2718 96.9605 93.2957 97.283 93.7207 97.5294C94.4404 97.9466 94.7227 98.1174 95.1749 98.9132Z" fill="url(#paint31_radial_3300_9166)"/>
<path id="Vector 102_9" d="M93.6141 99.4061C94.5211 99.5298 95.8945 100.586 95.8945 100.586L95.3537 101.827C95.3537 101.827 94.3684 102.221 93.5711 102.22C92.91 102.219 91.9405 101.828 91.3691 101.495C90.973 101.265 90.2999 100.528 90.2999 100.528C90.2999 100.528 91.1778 99.9096 91.6316 99.7215C92.4001 99.4029 92.7071 99.2823 93.6141 99.4061Z" fill="url(#paint32_radial_3300_9166)"/>
</g>
<g id="Group 337">
<path id="Vector 100_10" d="M97.0885 100.241C96.3351 100.761 95.5128 100.845 95.5128 100.845L94.7176 99.9458C94.7176 99.9458 94.9165 98.8862 95.5063 98.3495C95.9953 97.9047 96.6509 97.5347 97.297 97.3951C97.745 97.2984 98.7808 97.1792 98.7808 97.1792C98.7808 97.1792 98.5488 98.2273 98.3404 98.6722C97.9875 99.4255 97.842 99.7216 97.0885 100.241Z" fill="url(#paint33_radial_3300_9166)"/>
<path id="Vector 102_10" d="M96.462 98.7315C96.4177 99.6458 95.4853 101.106 95.4853 101.106L94.2022 100.675C94.2022 100.675 93.7233 99.7283 93.6549 98.9338C93.5983 98.2752 93.9036 97.2753 94.1849 96.6771C94.38 96.2624 95.0561 95.5276 95.0561 95.5276C95.0561 95.5276 95.7481 96.3483 95.9751 96.784C96.3594 97.5218 96.5063 97.8172 96.462 98.7315Z" fill="url(#paint34_radial_3300_9166)"/>
</g>
<rect id="Rectangle 164_2" x="89.2695" y="22.7209" width="3.38872" height="122.975" transform="rotate(-8.72932 89.2695 22.7209)" fill="url(#paint35_radial_3300_9166)"/>
<g id="Group 334_2">
<path id="Vector 101_8" d="M94.806 26.8535C93.5166 28.0857 92.2388 28.3949 92.2388 28.3949L91.2657 26.5924C91.2657 26.5924 91.8531 24.291 92.8971 23.0486C93.7627 22.0187 94.8627 21.1231 95.8864 20.7226C96.5963 20.4449 98.2095 20.0268 98.2095 20.0268C98.2095 20.0268 97.5747 22.3088 97.1373 23.2948C96.3968 24.9642 96.0954 25.6213 94.806 26.8535Z" fill="url(#paint36_radial_3300_9166)"/>
<path id="Vector 100_11" d="M94.3415 24.8204C93.8144 26.896 92.6925 28.0421 92.6925 28.0421L90.4978 26.8795C90.4978 26.8795 89.5936 24.1962 89.8594 22.2713C90.0798 20.6755 90.6317 19.0602 91.4302 17.9893C91.9838 17.2468 93.382 15.7723 93.382 15.7723C93.382 15.7723 94.2243 18.4673 94.4191 19.7386C94.7489 21.8911 94.8685 22.7449 94.3415 24.8204Z" fill="url(#paint37_radial_3300_9166)"/>
<path id="Vector 103_8" d="M89.8454 23.5499C91.2617 24.845 91.8887 26.5702 91.8887 26.5702L90.6306 28.8713C90.6306 28.8713 88.5037 29.1244 87.1485 28.1942C86.0251 27.4231 84.9494 26.2429 84.3169 24.9347C83.8784 24.0276 83.0632 21.863 83.0632 21.863C83.0632 21.863 85.1872 21.689 86.1513 21.8531C87.7837 22.1309 88.4291 22.2548 89.8454 23.5499Z" fill="url(#paint38_radial_3300_9166)"/>
<path id="Vector 102_11" d="M93.0624 21.7487C93.7732 23.4689 93.4255 27.3141 93.4255 27.3141L90.8469 28.1651C90.8469 28.1651 89.2075 27.0518 88.406 25.6933C87.7416 24.567 87.4063 22.3584 87.3755 20.9115C87.3542 19.9082 87.8851 17.7099 87.8851 17.7099C87.8851 17.7099 89.7824 18.3216 90.548 18.8253C91.8445 19.6782 92.3516 20.0285 93.0624 21.7487Z" fill="url(#paint39_radial_3300_9166)"/>
</g>
<g id="Group 333_2">
<path id="Vector 101_9" d="M97.7315 35.9633C96.0309 37.3584 94.1555 37.4447 94.1555 37.4447L92.3024 34.6133C92.3024 34.6133 92.7143 31.5043 94.0403 30.0269C95.1396 28.8021 96.6228 27.8331 98.0935 27.5468C99.1132 27.3483 101.475 27.2 101.475 27.2C101.475 27.2 100.987 30.2684 100.529 31.549C99.7526 33.7173 99.4321 34.5682 97.7315 35.9633Z" fill="url(#paint40_radial_3300_9166)"/>
<path id="Vector 100_12" d="M96.5067 32.8202C95.7377 35.262 94.2837 36.6679 94.2837 36.6679L91.6296 35.4721C91.6296 35.4721 90.6593 32.4248 91.0963 30.1755C91.4587 28.3109 92.2327 26.4008 93.2818 25.1046C94.0092 24.2058 95.824 22.4003 95.824 22.4003C95.824 22.4003 96.7169 25.4655 96.8871 26.9253C97.1754 29.3972 97.2757 30.3784 96.5067 32.8202Z" fill="url(#paint41_radial_3300_9166)"/>
<path id="Vector 103_9" d="M90.9186 30.8697C92.6101 32.6537 93.4141 34.9615 93.4141 34.9615L92.0767 37.9259C92.0767 37.9259 89.6415 38.1438 88.0378 36.8441C86.7084 35.7667 85.4141 34.1527 84.6238 32.3941C84.0759 31.1748 83.0344 28.2775 83.0344 28.2775C83.0344 28.2775 85.4699 28.1637 86.587 28.4324C88.4785 28.8874 89.227 29.0858 90.9186 30.8697Z" fill="url(#paint42_radial_3300_9166)"/>
<path id="Vector 102_12" d="M93.3957 29.7915C94.4747 32.2373 94.562 37.3871 94.562 37.3871L91.5783 38.1172C91.5783 38.1172 89.4644 36.3412 88.324 34.3703C87.3786 32.7365 86.6862 29.6909 86.4595 27.7266C86.3022 26.3646 86.651 23.4748 86.651 23.4748C86.651 23.4748 89.0087 24.6138 89.9939 25.4213C91.6621 26.7884 92.3167 27.3458 93.3957 29.7915Z" fill="url(#paint43_radial_3300_9166)"/>
</g>
<g id="Group 332_2">
<path id="Vector 101_10" d="M99.9739 44.6973C97.9958 45.976 95.8745 46.1284 95.8745 46.1284L93.8991 43.7528C93.8991 43.7528 94.4929 41.0431 96.0514 39.7087C97.3434 38.6025 99.0584 37.7019 100.731 37.393C101.891 37.1789 104.564 36.9527 104.564 36.9527C104.564 36.9527 103.886 39.6304 103.315 40.7585C102.349 42.6686 101.952 43.4187 99.9739 44.6973Z" fill="url(#paint44_radial_3300_9166)"/>
<path id="Vector 100_13" d="M98.7187 42.025C97.7493 44.1716 96.0492 45.4494 96.0492 45.4494L93.1016 44.5236C93.1016 44.5236 92.132 41.9245 92.7186 39.9584C93.2049 38.3285 94.158 36.6422 95.3964 35.4762C96.255 34.6677 98.379 33.0288 98.379 33.0288C98.379 33.0288 99.2604 35.6466 99.3922 36.9039C99.6154 39.0327 99.6881 39.8784 98.7187 42.025Z" fill="url(#paint45_radial_3300_9166)"/>
<path id="Vector 103_10" d="M92.4886 40.5668C94.3249 42.0418 95.1374 44.0073 95.1374 44.0073L93.5045 46.6301C93.5045 46.6301 90.7456 46.9195 88.9884 45.8603C87.5317 44.9822 86.137 43.6379 85.3174 42.1475C84.749 41.1142 83.6929 38.648 83.6929 38.648C83.6929 38.648 86.4478 38.4487 87.6982 38.6352C89.8153 38.9509 90.6523 39.0918 92.4886 40.5668Z" fill="url(#paint46_radial_3300_9166)"/>
<path id="Vector 102_13" d="M95.3306 39.5308C96.4478 41.6043 96.3333 46.0609 96.3333 46.0609L92.9339 46.8166C92.9339 46.8166 90.6202 45.366 89.414 43.7063C88.4141 42.3303 87.7582 39.7213 87.5835 38.0294C87.4623 36.8563 87.9757 34.3392 87.9757 34.3392C87.9757 34.3392 90.5909 35.228 91.6701 35.8866C93.4972 37.0016 94.2134 37.4573 95.3306 39.5308Z" fill="url(#paint47_radial_3300_9166)"/>
</g>
<g id="Group 331_2">
<path id="Vector 101_11" d="M101.333 53.5453C99.3552 54.824 97.2339 54.9764 97.2339 54.9764L95.2585 52.6009C95.2585 52.6009 95.8522 49.8911 97.4108 48.5567C98.7028 47.4505 100.418 46.5499 102.09 46.2411C103.25 46.0269 105.923 45.8008 105.923 45.8008C105.923 45.8008 105.245 48.4784 104.675 49.6065C103.709 51.5166 103.311 52.2667 101.333 53.5453Z" fill="url(#paint48_radial_3300_9166)"/>
<path id="Vector 100_14" d="M100.078 50.8735C99.1087 53.0201 97.4085 54.2979 97.4085 54.2979L94.461 53.3721C94.461 53.3721 93.4914 50.773 94.078 48.8069C94.5643 47.177 95.5174 45.4907 96.7557 44.3247C97.6143 43.5162 99.7384 41.8773 99.7384 41.8773C99.7384 41.8773 100.62 44.4951 100.752 45.7524C100.975 47.8812 101.048 48.7269 100.078 50.8735Z" fill="url(#paint49_radial_3300_9166)"/>
<path id="Vector 103_11" d="M93.848 49.4153C95.6843 50.8904 96.4967 52.8558 96.4967 52.8558L94.8638 55.4786C94.8638 55.4786 92.1049 55.768 90.3478 54.7088C88.8911 53.8307 87.4964 52.4864 86.6767 50.996C86.1084 49.9627 85.0523 47.4965 85.0523 47.4965C85.0523 47.4965 87.8072 47.2972 89.0576 47.4837C91.1747 47.7994 92.0117 47.9403 93.848 49.4153Z" fill="url(#paint50_radial_3300_9166)"/>
<path id="Vector 102_14" d="M96.69 48.3793C97.8072 50.4528 97.6926 54.9094 97.6926 54.9094L94.2932 55.6651C94.2932 55.6651 91.9795 54.2145 90.7734 52.5548C89.7734 51.1788 89.1176 48.5698 88.9428 46.878C88.8216 45.7049 89.3351 43.1877 89.3351 43.1877C89.3351 43.1877 91.9503 44.0766 93.0294 44.7351C94.8566 45.8501 95.5727 46.3058 96.69 48.3793Z" fill="url(#paint51_radial_3300_9166)"/>
</g>
<g id="Group 330_2">
<path id="Vector 101_12" d="M102.611 61.8864C100.633 63.165 98.5112 63.3175 98.5112 63.3175L96.5358 60.9419C96.5358 60.9419 97.1296 58.2322 98.6881 56.8978C99.9801 55.7916 101.695 54.8909 103.368 54.5821C104.527 54.368 107.201 54.1418 107.201 54.1418C107.201 54.1418 106.523 56.8195 105.952 57.9476C104.986 59.8576 104.589 60.6078 102.611 61.8864Z" fill="url(#paint52_radial_3300_9166)"/>
<path id="Vector 100_15" d="M101.355 59.2147C100.386 61.3613 98.6859 62.6391 98.6859 62.6391L95.7383 61.7133C95.7383 61.7133 94.7687 59.1142 95.3553 57.1481C95.8416 55.5182 96.7948 53.8319 98.0331 52.6659C98.8917 51.8574 101.016 50.2185 101.016 50.2185C101.016 50.2185 101.897 52.8363 102.029 54.0936C102.252 56.2224 102.325 57.0681 101.355 59.2147Z" fill="url(#paint53_radial_3300_9166)"/>
<path id="Vector 103_12" d="M95.1253 57.7571C96.9617 59.2322 97.7741 61.1976 97.7741 61.1976L96.1412 63.8204C96.1412 63.8204 93.3823 64.1098 91.6251 63.0506C90.1684 62.1725 88.7737 60.8282 87.9541 59.3378C87.3858 58.3045 86.3296 55.8383 86.3296 55.8383C86.3296 55.8383 89.0845 55.639 90.3349 55.8255C92.452 56.1412 93.289 56.2821 95.1253 57.7571Z" fill="url(#paint54_radial_3300_9166)"/>
<path id="Vector 102_15" d="M97.9673 56.7211C99.0845 58.7946 98.97 63.2512 98.97 63.2512L95.5706 64.0069C95.5706 64.0069 93.2569 62.5563 92.0507 60.8966C91.0508 59.5206 90.395 56.9116 90.2202 55.2198C90.099 54.0466 90.6124 51.5295 90.6124 51.5295C90.6124 51.5295 93.2277 52.4184 94.3068 53.0769C96.1339 54.1919 96.8501 54.6476 97.9673 56.7211Z" fill="url(#paint55_radial_3300_9166)"/>
</g>
<g id="Group 329_2">
<path id="Vector 101_13" d="M103.892 70.2275C101.914 71.5061 99.7925 71.6585 99.7925 71.6585L97.8171 69.283C97.8171 69.283 98.4108 66.5733 99.9694 65.2389C101.261 64.1327 102.976 63.232 104.649 62.9232C105.809 62.7091 108.482 62.4829 108.482 62.4829C108.482 62.4829 107.804 65.1605 107.233 66.2886C106.267 68.1987 105.87 68.9488 103.892 70.2275Z" fill="url(#paint56_radial_3300_9166)"/>
<path id="Vector 100_16" d="M102.637 67.5557C101.667 69.7023 99.9671 70.98 99.9671 70.98L97.0196 70.0542C97.0196 70.0542 96.05 67.4551 96.6366 65.4891C97.1229 63.8592 98.076 62.1728 99.3143 61.0068C100.173 60.1983 102.297 58.5595 102.297 58.5595C102.297 58.5595 103.178 61.1772 103.31 62.4345C103.533 64.5634 103.606 65.409 102.637 67.5557Z" fill="url(#paint57_radial_3300_9166)"/>
<path id="Vector 103_13" d="M96.4066 66.0975C98.2429 67.5725 99.0553 69.5379 99.0553 69.5379L97.4224 72.1607C97.4224 72.1607 94.6635 72.4501 92.9064 71.3909C91.4497 70.5128 90.055 69.1685 89.2353 67.6782C88.667 66.6448 87.6108 64.1787 87.6108 64.1787C87.6108 64.1787 90.3658 63.9793 91.6162 64.1658C93.7333 64.4816 94.5703 64.6224 96.4066 66.0975Z" fill="url(#paint58_radial_3300_9166)"/>
<path id="Vector 102_16" d="M99.2486 65.0614C100.366 67.135 100.251 71.5915 100.251 71.5915L96.8518 72.3473C96.8518 72.3473 94.5381 70.8966 93.332 69.2369C92.332 67.861 91.6762 65.252 91.5014 63.5601C91.3802 62.387 91.8937 59.8698 91.8937 59.8698C91.8937 59.8698 94.5089 60.7587 95.588 61.4172C97.4152 62.5323 98.1313 62.9879 99.2486 65.0614Z" fill="url(#paint59_radial_3300_9166)"/>
</g>
<g id="Group 328_2">
<path id="Vector 101_14" d="M105.173 78.5677C103.195 79.8463 101.074 79.9987 101.074 79.9987L99.0983 77.6232C99.0983 77.6232 99.6921 74.9135 101.251 73.5791C102.543 72.4729 104.258 71.5722 105.93 71.2634C107.09 71.0493 109.763 70.8231 109.763 70.8231C109.763 70.8231 109.085 73.5007 108.515 74.6288C107.548 76.5389 107.151 77.289 105.173 78.5677Z" fill="url(#paint60_radial_3300_9166)"/>
<path id="Vector 100_17" d="M103.918 75.8966C102.949 78.0432 101.248 79.321 101.248 79.321L98.3008 78.3952C98.3008 78.3952 97.3312 75.7961 97.9178 73.83C98.4041 72.2001 99.3573 70.5138 100.596 69.3477C101.454 68.5393 103.578 66.9004 103.578 66.9004C103.578 66.9004 104.46 69.5182 104.591 70.7755C104.815 72.9043 104.887 73.75 103.918 75.8966Z" fill="url(#paint61_radial_3300_9166)"/>
<path id="Vector 103_14" d="M97.6878 74.4384C99.5242 75.9134 100.337 77.8789 100.337 77.8789L98.7037 80.5017C98.7037 80.5017 95.9448 80.7911 94.1876 79.7318C92.7309 78.8537 91.3362 77.5095 90.5166 76.0191C89.9483 74.9857 88.8921 72.5196 88.8921 72.5196C88.8921 72.5196 91.647 72.3202 92.8974 72.5067C95.0145 72.8225 95.8515 72.9634 97.6878 74.4384Z" fill="url(#paint62_radial_3300_9166)"/>
<path id="Vector 102_17" d="M100.53 73.4024C101.647 75.4759 101.532 79.9324 101.532 79.9324L98.1331 80.6882C98.1331 80.6882 95.8194 79.2376 94.6132 77.5778C93.6133 76.2019 92.9575 73.5929 92.7827 71.901C92.6615 70.7279 93.1749 68.2108 93.1749 68.2108C93.1749 68.2108 95.7902 69.0996 96.8693 69.7582C98.6964 70.8732 99.4126 71.3288 100.53 73.4024Z" fill="url(#paint63_radial_3300_9166)"/>
</g>
<g id="Group 335_2">
<path id="Vector 100_18" d="M103.122 80.5545C102.519 81.8892 101.462 82.6837 101.462 82.6837L99.6296 82.1081C99.6296 82.1081 99.0268 80.4921 99.3915 79.2696C99.6938 78.2562 100.286 77.2077 101.056 76.4827C101.59 75.98 102.911 74.961 102.911 74.961C102.911 74.961 103.459 76.5886 103.541 77.3704C103.68 78.694 103.725 79.2198 103.122 80.5545Z" fill="url(#paint64_radial_3300_9166)"/>
<path id="Vector 102_18" d="M101.014 79.0037C101.709 80.293 101.638 83.0639 101.638 83.0639L99.5239 83.5338C99.5239 83.5338 98.0853 82.6319 97.3354 81.5999C96.7137 80.7444 96.3059 79.1222 96.1972 78.0702C96.1219 77.3408 96.4411 75.7757 96.4411 75.7757C96.4411 75.7757 98.0672 76.3284 98.7381 76.7379C99.8742 77.4312 100.319 77.7145 101.014 79.0037Z" fill="url(#paint65_radial_3300_9166)"/>
</g>
<g id="Group 336_2">
<path id="Vector 100_19" d="M100.997 83.3911C100.893 84.3006 100.416 84.9753 100.416 84.9753L99.2151 84.9826C99.2151 84.9826 98.5478 84.1359 98.5314 83.3387C98.5179 82.6778 98.6704 81.9406 98.9902 81.3621C99.212 80.961 99.8034 80.1023 99.8034 80.1023C99.8034 80.1023 100.44 80.9664 100.638 81.416C100.974 82.1773 101.101 82.4816 100.997 83.3911Z" fill="url(#paint66_radial_3300_9166)"/>
<path id="Vector 102_19" d="M99.4482 82.8698C100.108 83.5045 100.595 85.1673 100.595 85.1673L99.4263 85.8506C99.4263 85.8506 98.3978 85.5885 97.7544 85.1175C97.221 84.727 96.6686 83.8394 96.403 83.234C96.2189 82.8143 96.1101 81.8218 96.1101 81.8218C96.1101 81.8218 97.1834 81.8403 97.6609 81.9558C98.4695 82.1516 98.7886 82.2351 99.4482 82.8698Z" fill="url(#paint67_radial_3300_9166)"/>
</g>
<g id="Group 337_2">
<path id="Vector 100_20" d="M101.756 85.5933C100.841 85.5691 100.127 85.1522 100.127 85.1522L100.016 83.9568C100.016 83.9568 100.801 83.2181 101.594 83.1324C102.251 83.0613 102.999 83.149 103.603 83.4172C104.022 83.6031 104.929 84.1175 104.929 84.1175C104.929 84.1175 104.123 84.8273 103.693 85.0638C102.963 85.4642 102.671 85.6176 101.756 85.5933Z" fill="url(#paint68_radial_3300_9166)"/>
<path id="Vector 102_20" d="M102.143 84.0036C101.568 84.716 99.9542 85.3457 99.9542 85.3457L99.1718 84.2415C99.1718 84.2415 99.3433 83.1941 99.7564 82.5121C100.099 81.9467 100.935 81.319 101.515 81.0017C101.917 80.7817 102.896 80.5868 102.896 80.5868C102.896 80.5868 102.971 81.6577 102.898 82.1435C102.773 82.966 102.718 83.2912 102.143 84.0036Z" fill="url(#paint69_radial_3300_9166)"/>
</g>
</g>
</g>
</g>
</g>
<defs>
<radialGradient id="paint0_radial_3300_9166" cx="0" cy="0" r="1" gradientUnits="userSpaceOnUse" gradientTransform="translate(51.628 77.6945) rotate(89.1587) scale(115.394 13.1423)">
<stop offset="0.058941" stop-color="#9E7722"/>
<stop offset="1" stop-color="white"/>
</radialGradient>
<radialGradient id="paint1_radial_3300_9166" cx="0" cy="0" r="1" gradientUnits="userSpaceOnUse" gradientTransform="translate(55.4381 55.8346) rotate(-88.6564) scale(8.62121 5.09171)">
<stop stop-color="#C7A253"/>
<stop offset="1" stop-color="white"/>
</radialGradient>
<radialGradient id="paint2_radial_3300_9166" cx="0" cy="0" r="1" gradientUnits="userSpaceOnUse" gradientTransform="translate(55.8507 57.9626) rotate(-131.58) scale(13.2679 7.29993)">
<stop stop-color="#C79222"/>
<stop offset="1" stop-color="white"/>
</radialGradient>
<radialGradient id="paint3_radial_3300_9166" cx="0" cy="0" r="1" gradientUnits="userSpaceOnUse" gradientTransform="translate(50.3881 59.6285) rotate(177.325) scale(7.09574 5.88096)">
<stop stop-color="#9C7012"/>
<stop offset="1" stop-color="white"/>
</radialGradient>
<radialGradient id="paint4_radial_3300_9166" cx="0" cy="0" r="1" gradientUnits="userSpaceOnUse" gradientTransform="translate(55.9769 58.2295) rotate(-157.682) scale(9.68706 8.24807)">
<stop stop-color="#A97507"/>
<stop offset="1" stop-color="white"/>
</radialGradient>
<radialGradient id="paint5_radial_3300_9166" cx="0" cy="0" r="1" gradientUnits="userSpaceOnUse" gradientTransform="translate(62.1697 61.1427) rotate(-87.8314) scale(10.5459 8.74278)">
<stop stop-color="#C7A253"/>
<stop offset="1" stop-color="white"/>
</radialGradient>
<radialGradient id="paint6_radial_3300_9166" cx="0" cy="0" r="1" gradientUnits="userSpaceOnUse" gradientTransform="translate(62.2772 63.7095) rotate(-129.224) scale(15.2421 9.09935)">
<stop stop-color="#C79222"/>
<stop offset="1" stop-color="white"/>
</radialGradient>
<radialGradient id="paint7_radial_3300_9166" cx="0" cy="0" r="1" gradientUnits="userSpaceOnUse" gradientTransform="translate(55.6662 65.3779) rotate(-178.081) scale(8.88734 7.10811)">
<stop stop-color="#9C7012"/>
<stop offset="1" stop-color="white"/>
</radialGradient>
<radialGradient id="paint8_radial_3300_9166" cx="0" cy="0" r="1" gradientUnits="userSpaceOnUse" gradientTransform="translate(62.8381 65.7153) rotate(-156.963) scale(13.9847 9.16377)">
<stop stop-color="#A97507"/>
<stop offset="1" stop-color="white"/>
</radialGradient>
<radialGradient id="paint9_radial_3300_9166" cx="0" cy="0" r="1" gradientUnits="userSpaceOnUse" gradientTransform="translate(69.3233 67.2125) rotate(-80.0541) scale(10.7224 8.39495)">
<stop stop-color="#C7A253"/>
<stop offset="1" stop-color="white"/>
</radialGradient>
<radialGradient id="paint10_radial_3300_9166" cx="0" cy="0" r="1" gradientUnits="userSpaceOnUse" gradientTransform="translate(69.0738 69.7573) rotate(-127.435) scale(13.1508 10.2962)">
<stop stop-color="#C79222"/>
<stop offset="1" stop-color="white"/>
</radialGradient>
<radialGradient id="paint11_radial_3300_9166" cx="0" cy="0" r="1" gradientUnits="userSpaceOnUse" gradientTransform="translate(62.2451 72.3317) rotate(173.995) scale(8.87539 6.94887)">
<stop stop-color="#9C7012"/>
<stop offset="1" stop-color="white"/>
</radialGradient>
<radialGradient id="paint12_radial_3300_9166" cx="0" cy="0" r="1" gradientUnits="userSpaceOnUse" gradientTransform="translate(69.3588 71.679) rotate(-163.071) scale(12.6412 9.89728)">
<stop stop-color="#A97507"/>
<stop offset="1" stop-color="white"/>
</radialGradient>
<radialGradient id="paint13_radial_3300_9166" cx="0" cy="0" r="1" gradientUnits="userSpaceOnUse" gradientTransform="translate(75.6358 73.5592) rotate(-80.0541) scale(10.7224 8.39495)">
<stop stop-color="#C7A253"/>
<stop offset="1" stop-color="white"/>
</radialGradient>
<radialGradient id="paint14_radial_3300_9166" cx="0" cy="0" r="1" gradientUnits="userSpaceOnUse" gradientTransform="translate(75.3863 76.1034) rotate(-127.435) scale(13.1508 10.2962)">
<stop stop-color="#C79222"/>
<stop offset="1" stop-color="white"/>
</radialGradient>
<radialGradient id="paint15_radial_3300_9166" cx="0" cy="0" r="1" gradientUnits="userSpaceOnUse" gradientTransform="translate(68.5576 78.6784) rotate(173.995) scale(8.87539 6.94887)">
<stop stop-color="#9C7012"/>
<stop offset="1" stop-color="white"/>
</radialGradient>
<radialGradient id="paint16_radial_3300_9166" cx="0" cy="0" r="1" gradientUnits="userSpaceOnUse" gradientTransform="translate(75.6713 78.0257) rotate(-163.071) scale(12.6412 9.89728)">
<stop stop-color="#A97507"/>
<stop offset="1" stop-color="white"/>
</radialGradient>
<radialGradient id="paint17_radial_3300_9166" cx="0" cy="0" r="1" gradientUnits="userSpaceOnUse" gradientTransform="translate(81.5889 79.5411) rotate(-80.0541) scale(10.7224 8.39495)">
<stop stop-color="#C7A253"/>
<stop offset="1" stop-color="white"/>
</radialGradient>
<radialGradient id="paint18_radial_3300_9166" cx="0" cy="0" r="1" gradientUnits="userSpaceOnUse" gradientTransform="translate(81.3395 82.0864) rotate(-127.435) scale(13.1508 10.2962)">
<stop stop-color="#C79222"/>
<stop offset="1" stop-color="white"/>
</radialGradient>
<radialGradient id="paint19_radial_3300_9166" cx="0" cy="0" r="1" gradientUnits="userSpaceOnUse" gradientTransform="translate(74.5146 84.6616) rotate(173.995) scale(8.87539 6.94887)">
<stop stop-color="#9C7012"/>
<stop offset="1" stop-color="white"/>
</radialGradient>
<radialGradient id="paint20_radial_3300_9166" cx="0" cy="0" r="1" gradientUnits="userSpaceOnUse" gradientTransform="translate(81.6244 84.0076) rotate(-163.071) scale(12.6412 9.89728)">
<stop stop-color="#A97507"/>
<stop offset="1" stop-color="white"/>
</radialGradient>
<radialGradient id="paint21_radial_3300_9166" cx="0" cy="0" r="1" gradientUnits="userSpaceOnUse" gradientTransform="translate(87.5421 85.5237) rotate(-80.0541) scale(10.7224 8.39495)">
<stop stop-color="#C7A253"/>
<stop offset="1" stop-color="white"/>
</radialGradient>
<radialGradient id="paint22_radial_3300_9166" cx="0" cy="0" r="1" gradientUnits="userSpaceOnUse" gradientTransform="translate(87.2926 88.0691) rotate(-127.435) scale(13.1508 10.2962)">
<stop stop-color="#C79222"/>
<stop offset="1" stop-color="white"/>
</radialGradient>
<radialGradient id="paint23_radial_3300_9166" cx="0" cy="0" r="1" gradientUnits="userSpaceOnUse" gradientTransform="translate(80.4678 90.6435) rotate(173.995) scale(8.87539 6.94887)">
<stop stop-color="#9C7012"/>
<stop offset="1" stop-color="white"/>
</radialGradient>
<radialGradient id="paint24_radial_3300_9166" cx="0" cy="0" r="1" gradientUnits="userSpaceOnUse" gradientTransform="translate(87.5775 89.9903) rotate(-163.071) scale(12.6412 9.89728)">
<stop stop-color="#A97507"/>
<stop offset="1" stop-color="white"/>
</radialGradient>
<radialGradient id="paint25_radial_3300_9166" cx="0" cy="0" r="1" gradientUnits="userSpaceOnUse" gradientTransform="translate(93.4913 91.5059) rotate(-80.0541) scale(10.7224 8.39495)">
<stop stop-color="#C7A253"/>
<stop offset="1" stop-color="white"/>
</radialGradient>
<radialGradient id="paint26_radial_3300_9166" cx="0" cy="0" r="1" gradientUnits="userSpaceOnUse" gradientTransform="translate(93.2418 94.0517) rotate(-127.435) scale(13.1508 10.2962)">
<stop stop-color="#C79222"/>
<stop offset="1" stop-color="white"/>
</radialGradient>
<radialGradient id="paint27_radial_3300_9166" cx="0" cy="0" r="1" gradientUnits="userSpaceOnUse" gradientTransform="translate(86.4131 96.6251) rotate(173.995) scale(8.87539 6.94887)">
<stop stop-color="#9C7012"/>
<stop offset="1" stop-color="white"/>
</radialGradient>
<radialGradient id="paint28_radial_3300_9166" cx="0" cy="0" r="1" gradientUnits="userSpaceOnUse" gradientTransform="translate(93.5267 95.9723) rotate(-163.071) scale(12.6412 9.89728)">
<stop stop-color="#A97507"/>
<stop offset="1" stop-color="white"/>
</radialGradient>
<radialGradient id="paint29_radial_3300_9166" cx="0" cy="0" r="1" gradientUnits="userSpaceOnUse" gradientTransform="translate(95.2988 97.1792) rotate(-127.435) scale(8.17674 6.40188)">
<stop stop-color="#C79222"/>
<stop offset="1" stop-color="white"/>
</radialGradient>
<radialGradient id="paint30_radial_3300_9166" cx="0" cy="0" r="1" gradientUnits="userSpaceOnUse" gradientTransform="translate(95.4774 98.3742) rotate(-163.071) scale(7.8599 6.15381)">
<stop stop-color="#A97507"/>
<stop offset="1" stop-color="white"/>
</radialGradient>
<radialGradient id="paint31_radial_3300_9166" cx="0" cy="0" r="1" gradientUnits="userSpaceOnUse" gradientTransform="translate(95.5692 99.9767) rotate(-145.223) scale(5.11093 4.00154)">
<stop stop-color="#C79222"/>
<stop offset="1" stop-color="white"/>
</radialGradient>
<radialGradient id="paint32_radial_3300_9166" cx="0" cy="0" r="1" gradientUnits="userSpaceOnUse" gradientTransform="translate(95.9 100.654) rotate(179.141) scale(4.91288 3.84648)">
<stop stop-color="#A97507"/>
<stop offset="1" stop-color="white"/>
</radialGradient>
<radialGradient id="paint33_radial_3300_9166" cx="0" cy="0" r="1" gradientUnits="userSpaceOnUse" gradientTransform="translate(96.0635 100.727) rotate(-60.2217) scale(5.11093 4.00154)">
<stop stop-color="#C79222"/>
<stop offset="1" stop-color="white"/>
</radialGradient>
<radialGradient id="paint34_radial_3300_9166" cx="0" cy="0" r="1" gradientUnits="userSpaceOnUse" gradientTransform="translate(95.4175 101.117) rotate(-95.8577) scale(4.91289 3.84648)">
<stop stop-color="#A97507"/>
<stop offset="1" stop-color="white"/>
</radialGradient>
<radialGradient id="paint35_radial_3300_9166" cx="0" cy="0" r="1" gradientUnits="userSpaceOnUse" gradientTransform="translate(90.9639 43.5977) rotate(89.1587) scale(115.394 13.1423)">
<stop offset="0.058941" stop-color="#9E7722"/>
<stop offset="1" stop-color="white"/>
</radialGradient>
<radialGradient id="paint36_radial_3300_9166" cx="0" cy="0" r="1" gradientUnits="userSpaceOnUse" gradientTransform="translate(94.2932 25.1689) rotate(-52.5317) scale(8.62121 5.09171)">
<stop stop-color="#C7A253"/>
<stop offset="1" stop-color="white"/>
</radialGradient>
<radialGradient id="paint37_radial_3300_9166" cx="0" cy="0" r="1" gradientUnits="userSpaceOnUse" gradientTransform="translate(93.3734 27.1306) rotate(-95.4551) scale(13.2679 7.29993)">
<stop stop-color="#C79222"/>
<stop offset="1" stop-color="white"/>
</radialGradient>
<radialGradient id="paint38_radial_3300_9166" cx="0" cy="0" r="1" gradientUnits="userSpaceOnUse" gradientTransform="translate(87.9809 25.2553) rotate(-146.55) scale(7.09574 5.88096)">
<stop stop-color="#9C7012"/>
<stop offset="1" stop-color="white"/>
</radialGradient>
<radialGradient id="paint39_radial_3300_9166" cx="0" cy="0" r="1" gradientUnits="userSpaceOnUse" gradientTransform="translate(93.3188 27.4212) rotate(-121.557) scale(9.68706 8.24807)">
<stop stop-color="#A97507"/>
<stop offset="1" stop-color="white"/>
</radialGradient>
<radialGradient id="paint40_radial_3300_9166" cx="0" cy="0" r="1" gradientUnits="userSpaceOnUse" gradientTransform="translate(96.6018 33.4269) rotate(-51.7068) scale(10.5459 8.74278)">
<stop stop-color="#C7A253"/>
<stop offset="1" stop-color="white"/>
</radialGradient>
<radialGradient id="paint41_radial_3300_9166" cx="0" cy="0" r="1" gradientUnits="userSpaceOnUse" gradientTransform="translate(95.1782 35.5644) rotate(-93.0994) scale(15.2421 9.09936)">
<stop stop-color="#C79222"/>
<stop offset="1" stop-color="white"/>
</radialGradient>
<radialGradient id="paint42_radial_3300_9166" cx="0" cy="0" r="1" gradientUnits="userSpaceOnUse" gradientTransform="translate(88.8549 33.0159) rotate(-141.956) scale(8.88734 7.10811)">
<stop stop-color="#9C7012"/>
<stop offset="1" stop-color="white"/>
</radialGradient>
<radialGradient id="paint43_radial_3300_9166" cx="0" cy="0" r="1" gradientUnits="userSpaceOnUse" gradientTransform="translate(94.4479 37.5146) rotate(-120.838) scale(13.9847 9.16377)">
<stop stop-color="#A97507"/>
<stop offset="1" stop-color="white"/>
</radialGradient>
<radialGradient id="paint44_radial_3300_9166" cx="0" cy="0" r="1" gradientUnits="userSpaceOnUse" gradientTransform="translate(98.8031 42.5474) rotate(-43.9295) scale(10.7224 8.39495)">
<stop stop-color="#C7A253"/>
<stop offset="1" stop-color="white"/>
</radialGradient>
<radialGradient id="paint45_radial_3300_9166" cx="0" cy="0" r="1" gradientUnits="userSpaceOnUse" gradientTransform="translate(97.105 44.4567) rotate(-91.3107) scale(13.1508 10.2962)">
<stop stop-color="#C79222"/>
<stop offset="1" stop-color="white"/>
</radialGradient>
<radialGradient id="paint46_radial_3300_9166" cx="0" cy="0" r="1" gradientUnits="userSpaceOnUse" gradientTransform="translate(90.0695 42.511) rotate(-149.88) scale(8.87539 6.94887)">
<stop stop-color="#9C7012"/>
<stop offset="1" stop-color="white"/>
</radialGradient>
<radialGradient id="paint47_radial_3300_9166" cx="0" cy="0" r="1" gradientUnits="userSpaceOnUse" gradientTransform="translate(96.1991 46.176) rotate(-126.947) scale(12.6412 9.89728)">
<stop stop-color="#A97507"/>
<stop offset="1" stop-color="white"/>
</radialGradient>
<radialGradient id="paint48_radial_3300_9166" cx="0" cy="0" r="1" gradientUnits="userSpaceOnUse" gradientTransform="translate(100.163 51.3954) rotate(-43.9295) scale(10.7224 8.39495)">
<stop stop-color="#C7A253"/>
<stop offset="1" stop-color="white"/>
</radialGradient>
<radialGradient id="paint49_radial_3300_9166" cx="0" cy="0" r="1" gradientUnits="userSpaceOnUse" gradientTransform="translate(98.4644 53.3052) rotate(-91.3107) scale(13.1508 10.2962)">
<stop stop-color="#C79222"/>
<stop offset="1" stop-color="white"/>
</radialGradient>
<radialGradient id="paint50_radial_3300_9166" cx="0" cy="0" r="1" gradientUnits="userSpaceOnUse" gradientTransform="translate(91.4289 51.3595) rotate(-149.88) scale(8.87539 6.94887)">
<stop stop-color="#9C7012"/>
<stop offset="1" stop-color="white"/>
</radialGradient>
<radialGradient id="paint51_radial_3300_9166" cx="0" cy="0" r="1" gradientUnits="userSpaceOnUse" gradientTransform="translate(97.5585 55.0245) rotate(-126.947) scale(12.6412 9.89728)">
<stop stop-color="#A97507"/>
<stop offset="1" stop-color="white"/>
</radialGradient>
<radialGradient id="paint52_radial_3300_9166" cx="0" cy="0" r="1" gradientUnits="userSpaceOnUse" gradientTransform="translate(101.44 59.7365) rotate(-43.9295) scale(10.7224 8.39495)">
<stop stop-color="#C7A253"/>
<stop offset="1" stop-color="white"/>
</radialGradient>
<radialGradient id="paint53_radial_3300_9166" cx="0" cy="0" r="1" gradientUnits="userSpaceOnUse" gradientTransform="translate(99.7417 61.6464) rotate(-91.3107) scale(13.1508 10.2962)">
<stop stop-color="#C79222"/>
<stop offset="1" stop-color="white"/>
</radialGradient>
<radialGradient id="paint54_radial_3300_9166" cx="0" cy="0" r="1" gradientUnits="userSpaceOnUse" gradientTransform="translate(92.7062 59.7013) rotate(-149.88) scale(8.87539 6.94887)">
<stop stop-color="#9C7012"/>
<stop offset="1" stop-color="white"/>
</radialGradient>
<radialGradient id="paint55_radial_3300_9166" cx="0" cy="0" r="1" gradientUnits="userSpaceOnUse" gradientTransform="translate(98.8359 63.3663) rotate(-126.947) scale(12.6412 9.89728)">
<stop stop-color="#A97507"/>
<stop offset="1" stop-color="white"/>
</radialGradient>
<radialGradient id="paint56_radial_3300_9166" cx="0" cy="0" r="1" gradientUnits="userSpaceOnUse" gradientTransform="translate(102.721 68.0775) rotate(-43.9295) scale(10.7224 8.39495)">
<stop stop-color="#C7A253"/>
<stop offset="1" stop-color="white"/>
</radialGradient>
<radialGradient id="paint57_radial_3300_9166" cx="0" cy="0" r="1" gradientUnits="userSpaceOnUse" gradientTransform="translate(101.023 69.9873) rotate(-91.3107) scale(13.1508 10.2962)">
<stop stop-color="#C79222"/>
<stop offset="1" stop-color="white"/>
</radialGradient>
<radialGradient id="paint58_radial_3300_9166" cx="0" cy="0" r="1" gradientUnits="userSpaceOnUse" gradientTransform="translate(93.9874 68.0416) rotate(-149.88) scale(8.87539 6.94887)">
<stop stop-color="#9C7012"/>
<stop offset="1" stop-color="white"/>
</radialGradient>
<radialGradient id="paint59_radial_3300_9166" cx="0" cy="0" r="1" gradientUnits="userSpaceOnUse" gradientTransform="translate(100.117 71.7067) rotate(-126.947) scale(12.6412 9.89728)">
<stop stop-color="#A97507"/>
<stop offset="1" stop-color="white"/>
</radialGradient>
<radialGradient id="paint60_radial_3300_9166" cx="0" cy="0" r="1" gradientUnits="userSpaceOnUse" gradientTransform="translate(104.002 76.4177) rotate(-43.9295) scale(10.7224 8.39495)">
<stop stop-color="#C7A253"/>
<stop offset="1" stop-color="white"/>
</radialGradient>
<radialGradient id="paint61_radial_3300_9166" cx="0" cy="0" r="1" gradientUnits="userSpaceOnUse" gradientTransform="translate(102.304 78.3283) rotate(-91.3107) scale(13.1508 10.2962)">
<stop stop-color="#C79222"/>
<stop offset="1" stop-color="white"/>
</radialGradient>
<radialGradient id="paint62_radial_3300_9166" cx="0" cy="0" r="1" gradientUnits="userSpaceOnUse" gradientTransform="translate(95.2687 76.3826) rotate(-149.88) scale(8.87539 6.94887)">
<stop stop-color="#9C7012"/>
<stop offset="1" stop-color="white"/>
</radialGradient>
<radialGradient id="paint63_radial_3300_9166" cx="0" cy="0" r="1" gradientUnits="userSpaceOnUse" gradientTransform="translate(101.398 80.0476) rotate(-126.947) scale(12.6412 9.89728)">
<stop stop-color="#A97507"/>
<stop offset="1" stop-color="white"/>
</radialGradient>
<radialGradient id="paint64_radial_3300_9166" cx="0" cy="0" r="1" gradientUnits="userSpaceOnUse" gradientTransform="translate(102.119 82.0665) rotate(-91.3107) scale(8.17674 6.40187)">
<stop stop-color="#C79222"/>
<stop offset="1" stop-color="white"/>
</radialGradient>
<radialGradient id="paint65_radial_3300_9166" cx="0" cy="0" r="1" gradientUnits="userSpaceOnUse" gradientTransform="translate(101.554 83.1355) rotate(-126.947) scale(7.8599 6.15381)">
<stop stop-color="#A97507"/>
<stop offset="1" stop-color="white"/>
</radialGradient>
<radialGradient id="paint66_radial_3300_9166" cx="0" cy="0" r="1" gradientUnits="userSpaceOnUse" gradientTransform="translate(100.689 84.4826) rotate(-109.098) scale(5.11092 4.00153)">
<stop stop-color="#C79222"/>
<stop offset="1" stop-color="white"/>
</radialGradient>
<radialGradient id="paint67_radial_3300_9166" cx="0" cy="0" r="1" gradientUnits="userSpaceOnUse" gradientTransform="translate(100.559 85.2259) rotate(-144.734) scale(4.91288 3.84648)">
<stop stop-color="#A97507"/>
<stop offset="1" stop-color="white"/>
</radialGradient>
<radialGradient id="paint68_radial_3300_9166" cx="0" cy="0" r="1" gradientUnits="userSpaceOnUse" gradientTransform="translate(100.642 85.3811) rotate(-24.097) scale(5.11093 4.00153)">
<stop stop-color="#C79222"/>
<stop offset="1" stop-color="white"/>
</radialGradient>
<radialGradient id="paint69_radial_3300_9166" cx="0" cy="0" r="1" gradientUnits="userSpaceOnUse" gradientTransform="translate(99.8928 85.315) rotate(-59.733) scale(4.91288 3.84648)">
<stop stop-color="#A97507"/>
<stop offset="1" stop-color="white"/>
</radialGradient>
</defs>
</svg>
