<svg width="111" height="101" viewBox="0 0 111 101" fill="none" xmlns="http://www.w3.org/2000/svg">
<ellipse cx="88.1199" cy="90.5744" rx="47.2776" ry="45.8612" transform="rotate(1.67041 88.1199 90.5744)" fill="url(#paint0_radial_2158_6884)"/>
<ellipse cx="89.5924" cy="88.9965" rx="31.7658" ry="30.8141" transform="rotate(1.67041 89.5924 88.9965)" fill="url(#paint1_radial_2158_6884)"/>
<ellipse cx="89.4477" cy="89.1511" rx="28.661" ry="27.8023" transform="rotate(1.67041 89.4477 89.1511)" fill="url(#paint2_radial_2158_6884)"/>
<path d="M88.424 115.952C88.56 115.733 88.6799 115.362 88.7026 115.224C88.7254 115.086 88.8785 114.451 88.6074 113.857C88.3362 113.262 85.1074 105.973 82.7552 100.972C79.6087 94.2826 77.7977 90.5513 74.3942 83.9888C72.5554 80.4434 71.5172 78.4585 69.5832 74.9642C68.3274 72.6952 66.861 70.0608 66.3083 69.1873C65.7556 68.3138 65.2028 67.916 64.6804 66.9815C64.5131 66.6822 64.4088 66.5175 64.2832 66.1984C64.2279 66.0579 64.2005 65.9775 64.1566 65.8329C63.8129 64.6994 64.1787 63.0927 64.2075 62.8003C64.2362 62.5078 64.2436 61.3623 64.1549 60.8811C64.0661 60.3999 63.9608 60.0765 63.828 59.6687C63.6953 59.261 62.58 57.0187 61.868 55.2832C61.2095 53.6779 60.3002 51.1259 60.3002 51.1259L55.637 38.5814L54.8774 38.8355C54.8774 38.8355 55.245 40.0619 55.4742 40.8495C56.3028 43.6977 56.6372 45.3312 57.4655 48.1795C58.0031 50.0279 58.299 51.0666 58.8963 52.8965C59.3052 54.1491 59.927 55.931 59.9894 56.0886C60.0518 56.2462 59.8622 56.3659 59.7013 56.3974C59.5405 56.429 59.3794 56.4271 59.2573 56.3133L59.2499 56.3064C59.1336 56.1981 59.0921 56.1595 58.8336 55.5881C58.5696 55.0048 58.6061 55.1483 58.2136 54.1298C57.821 53.1114 53.4878 39.382 53.4878 39.382L52.8126 39.6047C52.8126 39.6047 53.2689 41.1906 53.5437 42.2117C54.1144 44.332 54.3348 45.5463 54.8866 47.6717C55.4157 49.7096 55.7303 50.8476 56.3058 52.8729C56.6456 54.0688 56.8658 54.7309 57.1949 55.9298C57.3322 56.4299 57.6319 57.1317 57.5384 57.2127C57.4449 57.2937 57.2114 57.3996 57.1053 57.4412C56.9991 57.4828 56.8535 57.1349 56.5502 56.621C56.2469 56.1071 55.7861 54.8649 55.3534 53.7172C54.2875 50.8902 54.0328 49.1907 53.1737 46.2942C52.4621 43.8947 51.3376 40.1541 51.3376 40.1541L50.6319 40.321C50.6319 40.321 51.1049 42.361 51.4173 43.666C51.902 45.6914 52.1926 46.8224 52.6934 48.8438C53.0155 50.1442 53.1643 50.8817 53.5208 52.1731C54.0038 53.9226 54.3175 54.8926 54.9133 56.6069C55.0874 57.1079 55.3893 57.7495 55.3705 57.8859C55.3518 58.0221 55.23 58.0973 55.0965 58.1798L55.0962 58.18C54.9552 58.2671 54.8501 58.3255 54.6875 58.2939C54.4947 58.2564 54.4273 58.1179 54.3198 57.9509C54.2124 57.7839 53.9402 56.9692 53.7086 56.3358C53.1533 54.8177 52.8855 53.9507 52.3908 52.4117C51.4102 49.361 50.9381 47.6257 50.0816 44.5379C49.696 43.1476 49.1178 40.9714 49.1178 40.9714L48.4593 41.2647L48.7039 42.978L50.648 52.2163C50.648 52.2163 51.5325 55.9553 52.339 58.2761C52.7379 59.4241 52.8946 60.1022 53.4506 61.1828C53.8455 61.9503 54.065 62.3955 54.6118 63.0634C55.164 63.7379 55.5376 64.0754 56.2443 64.586C56.7503 64.9516 57.0656 65.1154 57.6176 65.4022L57.6247 65.4058C58.8089 66.0211 60.0717 66.3128 60.8253 66.6035C61.579 66.8941 62.4416 67.1638 63.1762 67.9161C63.5335 68.282 63.5171 68.2389 63.9529 68.9705C64.3887 69.702 65.2328 71.5754 66.0373 73.252C68.3398 78.0502 69.6319 80.743 71.7337 85.6324C73.3573 89.4096 74.1617 91.5718 75.7019 95.3837C78.9117 103.327 83.6729 115.37 83.8159 115.767C83.9588 116.165 84.1867 116.562 84.6149 116.886C84.9786 117.162 85.2775 117.346 85.6945 117.332C86.1114 117.319 86.3277 117.302 86.712 117.186C87.1555 117.052 87.5437 116.836 87.7712 116.652C87.9988 116.468 88.2881 116.171 88.424 115.952Z" fill="url(#paint3_radial_2158_6884)"/>
<path d="M95.478 56.4601C95.478 56.4601 121.001 104.367 121.183 104.802C121.366 105.237 121.575 105.591 121.571 106.227C121.569 106.573 121.344 106.966 121.173 107.193C121.002 107.42 120.5 107.784 120.194 107.926C119.662 108.174 118.946 108.42 118.46 108.428C118.05 108.435 117.903 108.348 117.606 108.17L117.6 108.167C117.335 108.009 117.225 107.862 117.023 107.628C116.595 107.135 116.24 106.15 116.24 106.15C116.24 106.15 112.155 96.5476 109.456 90.4301C104.803 79.8828 102.669 73.7203 97.1662 63.5904C95.9298 61.3144 94.0558 58.0277 93.9112 57.8115C93.7666 57.5954 93.5042 57.3602 93.2666 57.2104C93.029 57.0605 92.2178 56.7848 91.5436 56.5177C90.5928 56.1411 90.0374 55.9843 89.1021 55.5706C87.951 55.0614 87.2905 54.7844 86.2338 54.1007C85.1744 53.4153 84.5994 52.9779 83.7118 52.0811C82.8072 51.1671 82.3682 50.5752 81.686 49.4851C81.0372 48.4485 80.7648 47.7993 80.2984 46.6874L80.2748 46.6311C79.8187 45.5443 79.5839 44.9211 79.2724 43.7845C78.8425 42.2161 78.5583 41.2488 78.3715 39.6334C78.1575 37.7821 78.1323 36.1652 78.3182 34.9148C78.4837 33.8015 78.6154 33.1148 78.9885 32.0529C79.3783 30.9437 79.6776 30.285 80.0347 29.8659C80.3918 29.4468 80.6288 29.2096 81.0956 28.9176C81.4844 28.6745 81.739 28.5862 82.1791 28.4579C82.6175 28.33 83.1146 28.3283 83.4607 28.3271L83.4648 28.3271C84.4067 28.3238 85.5362 28.7757 86.3034 29.2221C87.0749 29.671 87.5164 30.032 88.2237 30.639C89.3964 31.6454 89.9825 32.1862 91.0154 33.3326C92.2369 34.6885 93.7704 37.1074 93.7704 37.1074C93.7704 37.1074 95.9363 40.491 96.6611 42.9205C97.1218 44.4652 97.3281 45.3704 97.4046 46.9805C97.4537 48.0144 97.4731 48.608 97.3034 49.6291C97.0996 50.855 96.6674 51.767 96.312 52.6528L95.4017 54.9211C95.0463 55.8069 95.478 56.4601 95.478 56.4601Z" fill="url(#paint4_radial_2158_6884)"/>
<path d="M105.522 117.938C106.179 117.546 106.873 117.062 107.457 116.546C108.042 116.03 108.061 115.037 108.055 114.637C108.05 114.238 107.928 113.594 107.645 113.092C107.361 112.591 105.149 109.374 103.599 106.959C101.98 104.438 101.015 103.057 99.5393 100.45C98.3588 98.3634 97.6753 96.8657 96.7008 95.0068L94.2054 90.2469C93.2309 88.388 91.0994 84.344 89.1888 80.5212C87.6891 77.5206 85.7706 73.2555 85.4255 72.7997C85.0804 72.3439 84.3576 71.8037 84.3576 71.8037C84.3576 71.8037 83.6932 69.7492 83.3625 68.5883C83.0318 67.4274 81.0446 62.2 79.5594 58.1066C78.0742 54.0132 77.4584 52.6713 76.0558 49.2112C74.6873 45.8352 73.947 43.9298 72.4682 40.6006C71.2519 37.8625 69.946 35.0188 69.2202 33.6501C68.4944 32.2814 68.1487 31.7456 68.0198 31.5503C67.891 31.355 67.6669 31.1408 67.4956 31.0613C67.3243 30.9818 67.1549 30.9232 66.8705 30.914C66.5861 30.9048 66.2471 30.9951 65.957 31.1149C65.6669 31.2346 65.0149 31.4651 64.3023 32.1495C63.5896 32.8338 63.395 33.5567 63.2224 34.0469C63.0498 34.5372 62.7288 35.8736 62.614 37.0739C62.4423 38.8699 62.5745 39.9089 62.8874 41.6858C63.125 43.0345 63.1987 43.3471 63.7945 45.0733C64.3902 46.7995 66.0381 49.4277 67.555 52.175C69.4402 55.5894 70.5509 57.4748 72.5712 60.811C74.3275 63.7111 75.2508 65.3808 77.1859 68.1647C78.198 69.6208 78.89 70.3496 79.8685 71.8285C80.5366 72.8384 80.8886 73.4383 81.486 74.4563L81.5414 74.5507C82.7895 76.6773 83.3744 77.9347 84.5158 80.1205C86.8062 84.5064 87.9324 87.0457 90.171 91.4583C91.2039 93.4942 91.9069 94.5762 92.8322 96.6632C93.5353 98.249 93.856 99.1699 94.4603 100.796C95.1924 102.766 95.5703 103.882 96.2156 105.882C96.8049 107.708 97.0753 108.751 97.6382 110.586C98.209 112.446 98.2143 113.62 99.119 115.343C99.6439 116.343 100.185 117.278 100.724 117.748C101.264 118.219 101.799 118.387 101.799 118.387C101.799 118.387 102.778 118.692 103.403 118.613C104.029 118.534 104.864 118.33 105.522 117.938Z" fill="url(#paint5_radial_2158_6884)"/>
<defs>
<radialGradient id="paint0_radial_2158_6884" cx="0" cy="0" r="1" gradientUnits="userSpaceOnUse" gradientTransform="translate(85.6889 93.3382) rotate(-26.0054) scale(60.2628 62.1241)">
<stop offset="0.0874395" stop-color="#C6C6BA"/>
<stop offset="0.881198" stop-color="white"/>
</radialGradient>
<radialGradient id="paint1_radial_2158_6884" cx="0" cy="0" r="1" gradientUnits="userSpaceOnUse" gradientTransform="translate(86.8825 101.656) rotate(-17.64) scale(68.4762 70.5911)">
<stop offset="0.0874395" stop-color="#F0F0ED"/>
<stop offset="1" stop-color="#A7A28E"/>
</radialGradient>
<radialGradient id="paint2_radial_2158_6884" cx="0" cy="0" r="1" gradientUnits="userSpaceOnUse" gradientTransform="translate(87.0028 100.574) rotate(-19.8056) scale(99.9847 103.073)">
<stop offset="0.0874395" stop-color="#F0F0ED"/>
<stop offset="1" stop-color="#A7A28E"/>
</radialGradient>
<radialGradient id="paint3_radial_2158_6884" cx="0" cy="0" r="1" gradientUnits="userSpaceOnUse" gradientTransform="translate(56.5144 48.6941) rotate(72.779) scale(71.8516 153.619)">
<stop offset="0.381384" stop-color="white"/>
<stop offset="1" stop-color="#AAA4A4"/>
</radialGradient>
<radialGradient id="paint4_radial_2158_6884" cx="0" cy="0" r="1" gradientUnits="userSpaceOnUse" gradientTransform="translate(121.095 69.5676) rotate(-129.976) scale(80.9634 311.039)">
<stop stop-color="#6F6969"/>
<stop offset="0.493492" stop-color="white"/>
<stop offset="0.801174" stop-color="#D9D9D9"/>
</radialGradient>
<radialGradient id="paint5_radial_2158_6884" cx="0" cy="0" r="1" gradientUnits="userSpaceOnUse" gradientTransform="translate(97.8703 97.1069) rotate(-116.739) scale(53.6935 141.402)">
<stop offset="0.351629" stop-color="#A9A4A4"/>
<stop offset="1" stop-color="white"/>
</radialGradient>
</defs>
</svg>
