<svg width="60" height="56" viewBox="0 0 60 56" fill="none" xmlns="http://www.w3.org/2000/svg">
<path d="M47.3742 5.03192C42.6873 3.62171 39.1942 8.84993 34.9659 6.28956C32.8889 5.03191 31.0217 0.388167 27.6069 0.75604C24.7157 1.0675 21.9377 8.19105 19.0551 7.79868C12.6896 6.93226 10.4708 8.48496 7.98809 14.8414C6.29 19.189 -1.32159 26.8048 0.945453 30.9388C5.22133 38.7361 4.55757 44.3107 9.24572 49.5516C14.1239 55.0049 19.0552 47.5149 25.8352 49.5516C32.2684 51.4841 33.7523 55.5881 40.4346 55.5881C46.2196 55.5881 54.7978 52.9303 56.7836 44.018C58.1843 37.7321 54.5575 37.3939 54.866 30.9388C55.13 25.4157 60.0828 23.0765 59.3143 17.6081C58.3394 10.6713 53.6622 6.92389 47.3742 5.03192Z" fill="url(#paint0_diamond_2158_14444)"/>
<ellipse cx="29.9626" cy="28.1613" rx="8.99485" ry="10.6966" transform="rotate(76.2705 29.9626 28.1613)" fill="url(#paint1_diamond_2158_14444)"/>
<defs>
<radialGradient id="paint0_diamond_2158_14444" cx="0" cy="0" r="1" gradientUnits="userSpaceOnUse" gradientTransform="translate(29.9613 28.1617) rotate(-124.605) scale(57.3551 104.912)">
<stop offset="0.34375" stop-color="white"/>
<stop offset="1" stop-color="#D9D9D9" stop-opacity="0.56"/>
</radialGradient>
<radialGradient id="paint1_diamond_2158_14444" cx="0" cy="0" r="1" gradientUnits="userSpaceOnUse" gradientTransform="translate(29.9626 28.1613) rotate(89.6279) scale(14.9233 24.8349)">
<stop stop-color="#FFAB49"/>
<stop offset="1" stop-color="#FFFF99"/>
</radialGradient>
</defs>
</svg>
