<svg width="73" height="76" viewBox="0 0 73 76" fill="none" xmlns="http://www.w3.org/2000/svg">
<path d="M32.3753 19.8069L51.5597 46.8349L47.5726 54.2939C47.5726 54.2939 45.1247 53.7771 43.7399 54.3454C42.7094 54.7683 42.1089 55.177 41.4974 56.108C41.1127 56.6937 41.0196 57.0992 40.832 57.7743C40.5592 58.7563 40.8503 59.3969 40.5398 60.3676C40.3927 60.8276 40.2968 61.0872 40.0553 61.5054C39.649 62.2087 39.2565 62.4948 38.6706 63.0573C37.2764 64.3956 34.5316 65.7699 34.5316 65.7699C34.5316 65.7699 31.6119 61.8657 29.7851 59.3319C24.8718 52.5175 22.2396 48.6038 17.7078 41.53C12.5738 33.516 9.27517 29.217 5.17924 20.626C4.08438 18.3296 2.52574 14.6765 2.52574 14.6765C2.52574 14.6765 9.04043 10.9007 13.2441 8.53304C16.0265 6.96587 20.3888 4.5555 20.3888 4.5555C20.3888 4.5555 21.4685 3.96391 22.1317 4.17696C22.7126 4.36362 23.2586 5.25939 23.2586 5.25939C23.2586 5.25939 25.6792 9.45614 27.3187 12.0914C29.2217 15.1503 32.3753 19.8069 32.3753 19.8069Z" fill="url(#paint0_radial_2158_5217)"/>
<path d="M47.181 54.5544L51.7529 46.2472C51.7529 46.2472 54.5649 49.9451 56.4018 52.2872C58.8422 55.3987 60.3411 57.0401 62.7471 60.1783C65.0595 63.1945 66.4209 64.8469 68.4951 68.0316C69.521 69.6069 70.0668 70.51 71.0125 72.1347C72.2536 74.2671 72.9037 75.4904 74.0231 77.6891C75.648 80.8809 76.5595 82.681 77.8751 86.0122C78.5173 87.6383 79.3262 89.8024 79.4024 90.2204C79.4786 90.6385 79.3425 91.1038 79.2279 91.308C79.1132 91.5121 78.9926 91.7136 78.6383 91.9806C78.284 92.2475 77.6079 92.5361 76.5 92.8668C75.3922 93.1974 74.36 93.4465 72.9552 93.6158C72.0366 93.7265 70.8089 93.7703 70.5904 93.7632C70.3719 93.7561 70.2936 93.6955 70.2886 93.3027C70.2836 92.9099 69.9854 89.0874 69.1731 86.5348C68.7767 85.2892 68.5123 84.5978 67.936 83.4244C67.3174 82.1647 66.9078 81.4814 66.0879 80.3424C65.195 79.102 64.5633 78.506 63.5216 77.3876C62.0531 75.8108 61.0186 75.1322 59.5681 73.5388C58.6868 72.5707 58.1937 72.0228 57.4037 70.9788C56.4166 69.6742 55.9388 68.884 55.1074 67.475C54.2579 66.0353 53.8538 65.1861 53.112 63.6881C51.7194 60.8756 50.2607 56.9499 49.8899 56.326C49.519 55.7022 49.0108 55.3826 48.6572 55.1876C48.3036 54.9927 47.181 54.5544 47.181 54.5544Z" fill="url(#paint1_radial_2158_5217)"/>
<circle cx="45.9989" cy="46.3832" r="1.71462" transform="rotate(-33.2403 45.9989 46.3832)" fill="url(#paint2_radial_2158_5217)"/>
<defs>
<radialGradient id="paint0_radial_2158_5217" cx="0" cy="0" r="1" gradientUnits="userSpaceOnUse" gradientTransform="translate(78.4086 48.718) rotate(-147.055) scale(84.5611 63.1461)">
<stop stop-color="#D9D9D9"/>
<stop offset="0.812047" stop-color="white"/>
</radialGradient>
<radialGradient id="paint1_radial_2158_5217" cx="0" cy="0" r="1" gradientUnits="userSpaceOnUse" gradientTransform="translate(67.6954 78.212) rotate(-118.862) scale(31.6958 13.4009)">
<stop stop-color="#342920"/>
<stop offset="1" stop-color="#AC8D71"/>
</radialGradient>
<radialGradient id="paint2_radial_2158_5217" cx="0" cy="0" r="1" gradientUnits="userSpaceOnUse" gradientTransform="translate(47.7136 43.857) rotate(109.934) scale(5.02913)">
<stop stop-color="#46382C"/>
<stop offset="1" stop-color="#AC8D71"/>
</radialGradient>
</defs>
</svg>
