<svg width="111" height="101" viewBox="0 0 111 101" fill="none" xmlns="http://www.w3.org/2000/svg">
<path d="M74.0397 34.7899C59.2407 37.3602 50.776 31.6848 47.9784 38.7398C42.6179 52.2575 47.6352 65.1807 46.7543 78.1854C46.0495 88.5912 44.9731 104.156 46.2215 106.463C47.4699 108.771 51.6847 110.624 54.2888 112.608C56.5944 114.364 60.108 113.071 61.5667 111.156C63.8858 108.111 70.137 91.2476 70.137 91.2476C70.137 91.2476 92.9449 77.5829 98.8778 65.7224C104.811 53.862 104.305 47.7337 104.155 43.5161C103.751 32.1589 95.8696 29.484 95.8696 29.484C95.8696 29.484 79.3789 29.1074 78.5018 32.9655C78.0004 35.1709 78.0462 37.0789 77.3268 39.2231C76.7575 40.9198 75.8733 42.1287 75.8733 42.1287C75.8733 42.1287 77.9825 34.1051 74.0397 34.7899Z" fill="url(#paint0_diamond_1850_1388)"/>
<path d="M73.9316 37.891C60.3506 40.6338 52.6326 36.3922 49.9052 42.9997C44.6793 55.6597 49.7093 67.1704 48.5879 79.2459C47.6906 88.9082 45.959 101.899 47.0431 104.008C48.1273 106.116 51.9323 107.731 54.2628 109.506C56.3261 111.078 59.5671 109.794 60.9463 107.983C63.1389 105.105 67.8448 90.2568 67.8448 90.2568C67.8448 90.2568 81.9288 79.9179 90.2195 72.39C95.3292 67.7504 100.508 60.7311 102.025 48.7892C103.732 35.3505 93.6665 32.1464 93.6665 32.1464C93.6665 32.1464 82.1407 32.7704 81.2454 36.3678C81.035 37.2135 75.4102 45.6089 71.531 58.56C65.9775 77.1011 67.8448 90.2568 59.9332 102.525C52.0215 114.793 69.8736 57.731 69.8736 57.731C69.8736 57.731 77.55 37.1602 73.9316 37.891Z" fill="url(#paint1_diamond_1850_1388)"/>
<defs>
<radialGradient id="paint0_diamond_1850_1388" cx="0" cy="0" r="1" gradientUnits="userSpaceOnUse" gradientTransform="translate(49.1291 112.536) rotate(-70.4977) scale(87.742 173.246)">
<stop stop-color="#FFCDCD"/>
<stop offset="0.694482" stop-color="white"/>
<stop offset="0.989313" stop-color="#FFCCCC"/>
</radialGradient>
<radialGradient id="paint1_diamond_1850_1388" cx="0" cy="0" r="1" gradientUnits="userSpaceOnUse" gradientTransform="translate(80.2181 40.4812) rotate(114.401) scale(64.9803 135.436)">
<stop stop-color="#D50000"/>
<stop offset="1" stop-color="#833535"/>
</radialGradient>
</defs>
</svg>
