<svg width="111" height="101" viewBox="0 0 111 101" fill="none" xmlns="http://www.w3.org/2000/svg">
<mask id="mask0_2158_14420" style="mask-type:alpha" maskUnits="userSpaceOnUse" x="0" y="0" width="111" height="101">
<rect x="0.527344" y="0.201172" width="110" height="100" rx="15" fill="#D9D9D9"/>
</mask>
<g mask="url(#mask0_2158_14420)">
<path d="M67.4162 60.6305C67.2456 56.64 69.8974 53.0771 73.7688 52.0951C78.2488 50.9587 82.8088 53.6397 83.9943 58.1069L93.6954 94.6653C95.3115 100.755 91.3416 106.938 85.1421 108.064C84.4637 108.187 83.7951 108.379 83.155 108.635C76.5835 111.267 69.3827 106.616 69.0803 99.5431L67.4162 60.6305Z" fill="url(#paint0_diamond_2158_14420)"/>
<path d="M107.46 46.2343C110.742 61.2751 91.7289 53.7687 73.5673 57.7309C55.4057 61.6931 44.9727 75.6234 41.6914 60.5827C38.41 45.5419 50.4729 30.137 68.6345 26.1748C86.7961 22.2126 104.179 31.1936 107.46 46.2343Z" fill="url(#paint1_diamond_2158_14420)"/>
<path d="M47.7063 81.3919C47.2409 78.2161 49.0669 75.1492 52.0807 74.045C55.5682 72.7672 59.4345 74.5343 60.7505 78.0076L71.52 106.432C73.3141 111.167 70.6505 116.437 65.7875 117.848C65.2553 118.002 64.7367 118.211 64.2462 118.469C59.21 121.114 53.0702 117.99 52.2453 112.361L47.7063 81.3919Z" fill="url(#paint2_diamond_2158_14420)"/>
<path d="M78.5314 66.5819C82.3947 78.3347 66.5771 73.902 52.3857 78.5669C38.1943 83.2318 31.003 95.2278 27.1397 83.475C23.2764 71.7222 31.649 58.413 45.8404 53.7481C60.0318 49.0832 74.6681 54.8291 78.5314 66.5819Z" fill="url(#paint3_diamond_2158_14420)"/>
</g>
<defs>
<radialGradient id="paint0_diamond_2158_14420" cx="0" cy="0" r="1" gradientUnits="userSpaceOnUse" gradientTransform="translate(74.0289 43.5116) rotate(71.2065) scale(92.5687 29.1038)">
<stop offset="0.140625" stop-color="#D2C39C"/>
<stop offset="1" stop-color="#7F6641"/>
</radialGradient>
<radialGradient id="paint1_diamond_2158_14420" cx="0" cy="0" r="1" gradientUnits="userSpaceOnUse" gradientTransform="translate(77.3999 66.6778) rotate(-98.1459) scale(38.9918 73.0402)">
<stop stop-color="#2B190D"/>
<stop offset="1" stop-color="#EBC883"/>
</radialGradient>
<radialGradient id="paint2_diamond_2158_14420" cx="0" cy="0" r="1" gradientUnits="userSpaceOnUse" gradientTransform="translate(51.5808 67.1621) rotate(65.3172) scale(74.3909 23.3887)">
<stop offset="0.140625" stop-color="#D2C39C"/>
<stop offset="1" stop-color="#7F6641"/>
</radialGradient>
<radialGradient id="paint3_diamond_2158_14420" cx="0" cy="0" r="1" gradientUnits="userSpaceOnUse" gradientTransform="translate(56.1872 85.403) rotate(-104.035) scale(31.3349 58.6972)">
<stop stop-color="#2B190D"/>
<stop offset="1" stop-color="#EBC883"/>
</radialGradient>
</defs>
</svg>
