<svg width="101" height="101" viewBox="0 0 101 101" fill="none" xmlns="http://www.w3.org/2000/svg">
<path d="M64.281 71.6598C65.6277 78.2909 79.6767 75.753 85.731 90.1013C91.7852 104.45 88.1224 116.135 78.4532 121.779C69.344 127.096 54.08 123.874 47.2323 112.828C39.2795 100.001 48.5597 91.4776 41.3467 85.1453C38.5916 82.7267 32.352 78.0416 30.3439 71.5119C25.8157 56.7882 33.5595 47.6922 35.0154 46.7862C36.4714 45.8803 35.1702 46.9329 36.9096 47.1866C42.239 41.7919 51.5578 48.9774 57.8068 54.4635C60.7076 57.0101 63.4263 67.4511 64.281 71.6598Z" fill="url(#paint0_diamond_2158_14402)"/>
<path d="M93.3349 62.2319C91.9916 70.1993 108.737 73.3967 109.33 91.9836C109.923 110.571 100.829 122.022 87.6328 124.165C75.2006 126.183 59.572 116.045 56.6782 100.799C53.317 83.0927 67.3146 77.5747 61.9922 67.424C59.9592 63.547 55.0151 55.6496 55.5777 47.5114C56.8463 29.1607 69.3775 22.3452 71.3886 21.96C73.3998 21.5748 71.4982 22.1898 73.3278 23.2185C81.5809 19.4923 88.8842 31.4968 93.4953 40.291C95.6358 44.3732 94.1875 57.175 93.3349 62.2319Z" fill="url(#paint1_diamond_2158_14402)"/>
<defs>
<radialGradient id="paint0_diamond_2158_14402" cx="0" cy="0" r="1" gradientUnits="userSpaceOnUse" gradientTransform="translate(32.4852 51.7772) rotate(53.427) scale(91.3716 59.32)">
<stop stop-color="#FFEFC6"/>
<stop offset="1" stop-color="#C9A54C"/>
</radialGradient>
<radialGradient id="paint1_diamond_2158_14402" cx="0" cy="0" r="1" gradientUnits="userSpaceOnUse" gradientTransform="translate(39.8858 46.4521) rotate(56.0745) scale(114.75 113.53)">
<stop offset="0.345205" stop-color="#FDECC1"/>
<stop offset="1" stop-color="#C9A64D"/>
</radialGradient>
</defs>
</svg>
