<svg width="100" height="84" viewBox="0 0 100 84" fill="none" xmlns="http://www.w3.org/2000/svg">
<path d="M75.416 84.1224C75.416 84.1224 67.9865 82.4476 60.6722 82.0564C58.4217 81.936 55.0059 78.4061 55.0059 78.4061C55.0059 78.4061 63.4464 78.3293 64.8956 77.976C68.2349 77.1617 68.3813 76.5769 72.6595 76.0827C76.4007 75.6506 79.2541 76.2859 79.2541 76.2859C79.2541 76.2859 80.1609 73.9132 81.4958 72.784C83.5551 71.0421 85.329 71.7712 86.6683 69.5289C87.8772 67.5049 87.2988 65.4109 86.0146 60.1447C85.1602 56.6407 81.955 52.9937 81.955 52.9937C81.955 52.9937 69.7505 60.1845 63.5095 59.5285C49.5868 58.0651 41.6 57.9759 41.6 57.9759C41.6 57.9759 33.0813 60.8019 28.583 60.3359L17.0643 59.1426C17.0643 59.1426 22.1505 54.448 26.5489 51.9946C30.3661 49.8655 30.7927 50.1974 34.048 49.0591L34.2344 48.9855C34.7745 48.6864 22.0942 51.9741 22.0942 51.9741C30.6114 46.6107 48.5391 43.2931 50.924 42.3893L50.9927 42.3621C61.8343 37.8716 63.9468 37.466 77.7702 35.8323C77.7702 35.8323 87.1866 34.1645 93.2141 38.274C97.6261 41.2821 101.106 44.6783 102.703 49.9711C104.619 56.3213 104.257 60.6589 102.334 66.8649C100.569 72.5606 98.5497 75.6334 94.3161 79.5136C91.17 82.397 86.0355 83.7838 82.9579 83.7819C80.4385 83.7803 75.416 84.1224 75.416 84.1224Z" fill="url(#paint0_diamond_1850_699)"/>
<path d="M85.3046 51.7738L85.316 51.8021C86.4685 54.6531 79.6166 56.5513 79.6166 56.5513L77.2327 64.0164L76.3655 69.4225L75.8702 63.5463L77.3837 55.3457C77.3837 55.3457 79.4204 51.6558 81.6141 50.6053C82.4347 50.2124 82.9596 49.6182 83.8347 49.9218C84.6738 50.213 84.9554 50.9097 85.3046 51.7738Z" fill="url(#paint1_diamond_1850_699)"/>
<path d="M86.9608 53.9491L86.9723 53.9774C88.1247 56.8284 81.2728 58.7266 81.2728 58.7266L78.8889 66.1916L78.0218 71.5978L77.5265 65.7216L79.04 57.521C79.04 57.521 81.0767 53.8311 83.2703 52.7806C84.0909 52.3877 84.6158 51.7935 85.4909 52.0971C86.3301 52.3883 86.6116 53.085 86.9608 53.9491Z" fill="url(#paint2_diamond_1850_699)"/>
<path d="M88.7811 56.3353L88.7926 56.3636C89.945 59.2146 83.0931 61.1128 83.0931 61.1128L80.7092 68.5779L80.7989 74.0627L79.3468 68.1079L80.8603 59.9073C80.8603 59.9073 82.897 56.2173 85.0906 55.1669C85.9112 54.7739 86.4362 54.1797 87.3113 54.4834C88.1504 54.7745 88.4319 55.4712 88.7811 56.3353Z" fill="url(#paint3_diamond_1850_699)"/>
<path d="M90.2549 59.3354L90.2663 59.3637C91.4188 62.2147 84.5669 64.1129 84.5669 64.1129L82.8054 67.9274L83.9492 72.6179L80.6662 69.0576L82.1621 62.2023C82.1621 62.2023 84.3707 59.2175 86.5644 58.167C87.385 57.774 87.9099 57.1798 88.785 57.4835C89.6241 57.7746 89.9057 58.4713 90.2549 59.3354Z" fill="url(#paint4_diamond_1850_699)"/>
<path d="M91.0946 64.3935L91.1004 64.4235C91.6762 67.4489 84.5544 67.7555 84.5544 67.7555L84.5352 69.6856L86.0305 70.9943L83.7978 71.0317L82.5813 70.162L82.5915 66.0849C82.5915 66.0849 85.3217 62.9602 87.6887 62.4323C88.5741 62.2348 89.2078 61.7758 90.0102 62.2666C90.7796 62.7373 90.9202 63.4766 91.0946 64.3935Z" fill="url(#paint5_diamond_1850_699)"/>
<path d="M64.7297 54.4906L72.4855 57.6723L70.6801 58.2916L64.1229 55.7453L59.1076 53.8939L56.3387 64.53L64.4695 72.1393L55.3695 64.7664L58.5698 51.6886L64.7297 54.4906Z" fill="url(#paint6_diamond_1850_699)"/>
<path d="M60.4982 54.9079L67.8892 59.0131L66.0218 59.403L59.7574 56.0744L54.9558 53.6237L51.0449 63.8045L58.3314 72.3362L50.0528 63.9187L54.6578 51.3755L60.4982 54.9079Z" fill="url(#paint7_diamond_1850_699)"/>
<path d="M46.5525 60.0675L65.8176 59.4929L60.9271 61.3196L46.8262 61.1901L35.6297 63.9204L29.0878 66.5068L34.7484 62.946L46.5525 60.0675Z" fill="url(#paint8_diamond_1850_699)"/>
<path d="M46.9224 62.8117L65.8466 59.4471L61.2559 61.9744L47.3348 63.8895L36.6404 68.2304L30.5178 71.7533L35.6477 67.3882L46.9224 62.8117Z" fill="url(#paint9_diamond_1850_699)"/>
<path d="M47.1947 64.7166L65.7008 59.5378L61.3554 62.5036L47.6947 65.7538L37.4417 71.1177L31.659 75.2252L36.3853 70.3715L47.1947 64.7166Z" fill="url(#paint10_diamond_1850_699)"/>
<path d="M28.6126 63.9222C34.8333 62.4052 38.683 60.4874 44.654 58.1536L43.5287 57.9992C43.5287 57.9992 34.4903 61.7531 28.4036 63.0651C21.7233 64.5051 14.7191 64.3266 11.1021 57.8813C6.46538 49.6189 21.3615 48.7221 24.0009 39.7612C26.4745 31.3635 24.3313 16.6895 24.3313 16.6895C24.3313 16.6895 25.7651 30.423 23.7331 38.6629C21.2669 48.6642 3.8628 50.3988 10.0649 58.684C15.0854 65.3908 24.028 65.0401 28.6126 63.9222Z" fill="url(#paint11_diamond_1850_699)"/>
<ellipse cx="3.13027" cy="3.16849" rx="3.13027" ry="3.16849" transform="matrix(0.971531 -0.236911 0.236909 0.971532 35.8281 47.7461)" fill="url(#paint12_linear_1850_699)"/>
<defs>
<radialGradient id="paint0_diamond_1850_699" cx="0" cy="0" r="1" gradientUnits="userSpaceOnUse" gradientTransform="translate(76.9495 57.5608) rotate(78.5763) scale(43.3797 129.761)">
<stop stop-color="#FFE3B8"/>
<stop offset="1" stop-color="#F05938"/>
</radialGradient>
<radialGradient id="paint1_diamond_1850_699" cx="0" cy="0" r="1" gradientUnits="userSpaceOnUse" gradientTransform="translate(82.6522 58.4798) rotate(85.9064) scale(16.7488 15.9355)">
<stop stop-color="#FFE3B8"/>
<stop offset="1" stop-color="#F05938"/>
</radialGradient>
<radialGradient id="paint2_diamond_1850_699" cx="0" cy="0" r="1" gradientUnits="userSpaceOnUse" gradientTransform="translate(84.3085 60.6551) rotate(85.9064) scale(16.7488 15.9355)">
<stop stop-color="#FFE3B8"/>
<stop offset="1" stop-color="#F05938"/>
</radialGradient>
<radialGradient id="paint3_diamond_1850_699" cx="0" cy="0" r="1" gradientUnits="userSpaceOnUse" gradientTransform="translate(86.1339 63.1019) rotate(85.9013) scale(16.8674 15.9354)">
<stop stop-color="#FFE3B8"/>
<stop offset="1" stop-color="#F05938"/>
</radialGradient>
<radialGradient id="paint4_diamond_1850_699" cx="0" cy="0" r="1" gradientUnits="userSpaceOnUse" gradientTransform="translate(87.45 64.1618) rotate(86.1086) scale(13.0705 15.908)">
<stop stop-color="#FFE3B8"/>
<stop offset="1" stop-color="#F05938"/>
</radialGradient>
<radialGradient id="paint5_diamond_1850_699" cx="0" cy="0" r="1" gradientUnits="userSpaceOnUse" gradientTransform="translate(88.3233 66.3202) rotate(97.6546) scale(8.56431 12.6992)">
<stop stop-color="#FFE3B8"/>
<stop offset="1" stop-color="#F05938"/>
</radialGradient>
<radialGradient id="paint6_diamond_1850_699" cx="0" cy="0" r="1" gradientUnits="userSpaceOnUse" gradientTransform="translate(66.9922 59.4564) rotate(77.4345) scale(18.6164 27.8274)">
<stop stop-color="#FFE3B8"/>
<stop offset="1" stop-color="#F05938"/>
</radialGradient>
<radialGradient id="paint7_diamond_1850_699" cx="0" cy="0" r="1" gradientUnits="userSpaceOnUse" gradientTransform="translate(62.218 60.1001) rotate(83.5908) scale(18.5928 27.8628)">
<stop stop-color="#FFE3B8"/>
<stop offset="1" stop-color="#F05938"/>
</radialGradient>
<radialGradient id="paint8_diamond_1850_699" cx="0" cy="0" r="1" gradientUnits="userSpaceOnUse" gradientTransform="translate(53.9465 60.3991) rotate(86.8623) scale(4.115 55.8084)">
<stop stop-color="#FFE3B8"/>
<stop offset="1" stop-color="#F05938"/>
</radialGradient>
<radialGradient id="paint9_diamond_1850_699" cx="0" cy="0" r="1" gradientUnits="userSpaceOnUse" gradientTransform="translate(54.2556 62.0699) rotate(79.6157) scale(4.12505 55.6724)">
<stop stop-color="#FFE3B8"/>
<stop offset="1" stop-color="#F05938"/>
</radialGradient>
<radialGradient id="paint10_diamond_1850_699" cx="0" cy="0" r="1" gradientUnits="userSpaceOnUse" gradientTransform="translate(54.4131 63.2713) rotate(74.8347) scale(4.12595 55.6603)">
<stop stop-color="#FFE3B8"/>
<stop offset="1" stop-color="#F05938"/>
</radialGradient>
<radialGradient id="paint11_diamond_1850_699" cx="0" cy="0" r="1" gradientUnits="userSpaceOnUse" gradientTransform="translate(28.4602 37.3442) rotate(77.2643) scale(41.0559 52.1975)">
<stop stop-color="#FFE3B8"/>
<stop offset="1" stop-color="#F05938"/>
</radialGradient>
<linearGradient id="paint12_linear_1850_699" x1="3.13027" y1="5.81246" x2="1.56621" y2="-3.46107" gradientUnits="userSpaceOnUse">
<stop/>
<stop offset="1" stop-color="white"/>
</linearGradient>
</defs>
</svg>
