<svg width="74" height="73" viewBox="0 0 74 73" fill="none" xmlns="http://www.w3.org/2000/svg">
<path d="M33.0713 29.3609C30.0279 29.6623 27.7114 30.8859 24.8564 34.4136C21.23 38.8946 19.4974 40.5586 20.6749 46.2016C22.1573 53.3053 28.5991 57.5493 34.4226 61.8791C38.616 64.9968 41.2855 66.3147 45.9392 68.6912C55.2086 73.4248 60.7537 75.9042 70.9895 77.7904C78.4645 79.1678 89.5168 81.6241 90.4164 78.9792C91.3161 76.3343 84.8034 70.3005 79.9023 65.9923C74.7925 61.5009 69.1132 58.934 63.8907 54.2289C58.6682 49.5238 57.1288 49.7171 53.9866 46.0384C50.6024 42.0765 51.287 40.4094 48.6957 37.4363C44.4225 32.5333 39.5435 28.72 33.0713 29.3609Z" fill="url(#paint0_radial_2158_14269)"/>
<path d="M30.8523 34.4561L31.7121 30.6117C31.7121 30.6117 29.3787 31.636 27.8762 31.6059C26.1944 31.5721 24.996 30.7195 24.0009 30.1861C23.0057 29.6528 21.5046 27.2122 20.7753 26.0265C20.0461 24.8409 18.1917 22.2416 17.2017 21.3009C16.2116 20.3602 15.9608 20.2354 14.9344 19.9648C13.6515 19.6266 12.7344 19.6998 11.402 20.1871C10.4352 20.5407 10.009 21.0082 9.14326 21.5764C7.52813 22.6363 7.01498 24.0452 5.16607 24.5103C4.38903 24.7057 4.82098 23.2555 3.15463 24.6747C1.48828 26.0938 0.317248 26.027 0.753621 26.7365C1.18999 27.446 1.89053 27.422 2.75334 27.4569C3.85065 27.5013 4.37232 27.1384 5.52156 26.5344C6.6708 25.9304 8.89264 24.4228 9.6357 24.004C10.3788 23.5851 11.6143 22.5132 12.9251 22.6634C13.8591 22.7704 14.1214 22.8699 14.9375 23.766C15.7537 24.6622 16.4149 26.4278 17.5486 28.0112C18.7484 29.6871 20.9354 32.0716 20.9354 32.0716C20.9354 32.0716 22.9513 33.8683 23.0242 35.4677C23.0933 36.9822 21.4628 39.2561 21.4628 39.2561L24.4242 39.19C24.4242 39.19 25.7701 37.582 27.3028 36.6392L30.8523 34.4561Z" fill="url(#paint1_radial_2158_14269)"/>
<defs>
<radialGradient id="paint0_radial_2158_14269" cx="0" cy="0" r="1" gradientUnits="userSpaceOnUse" gradientTransform="translate(45.1727 41.294) rotate(57.6103) scale(34.3584 20.509)">
<stop stop-color="#FF6B3D"/>
<stop offset="1" stop-color="#990404"/>
</radialGradient>
<radialGradient id="paint1_radial_2158_14269" cx="0" cy="0" r="1" gradientUnits="userSpaceOnUse" gradientTransform="translate(30.2641 38.3239) rotate(-142.373) scale(26.253 26.3177)">
<stop stop-color="#91BB76"/>
<stop offset="0.372585" stop-color="#206500"/>
<stop offset="1" stop-color="#99C96A"/>
</radialGradient>
</defs>
</svg>
