<svg width="111" height="101" viewBox="0 0 111 101" fill="none" xmlns="http://www.w3.org/2000/svg">
<g id="Mask group">
<mask id="mask0_3300_34" style="mask-type:alpha" maskUnits="userSpaceOnUse" x="0" y="0" width="111" height="101">
<rect id="Rectangle 154" x="0.527344" y="0.201172" width="110" height="100" rx="15" fill="#D9D9D9"/>
</mask>
<g mask="url(#mask0_3300_34)">
<g id="Group 347">
<path id="Ellipse 53" d="M123.464 77.0092C123.464 97.5707 106.795 114.239 86.2337 114.239C65.6723 114.239 49.0039 97.5707 49.0039 77.0092C49.0039 56.4478 65.6723 39.7794 86.2337 39.7794C106.795 39.7794 123.464 56.4478 123.464 77.0092ZM76.159 77.0092C76.159 82.5733 80.6696 87.0839 86.2337 87.0839C91.7978 87.0839 96.3084 82.5733 96.3084 77.0092C96.3084 71.4451 91.7978 66.9345 86.2337 66.9345C80.6696 66.9345 76.159 71.4451 76.159 77.0092Z" fill="url(#paint0_radial_3300_34)"/>
<g id="Ellipse 54" filter="url(#filter0_f_3300_34)">
<path d="M119.266 77.0095C126.214 94.3451 86.2351 123.203 82.5269 106.97C63.0881 105.968 54.8716 98.9602 54.8716 80.7179C50.126 62.1818 69.4014 34.6254 86.2351 46.4492C103.769 42.842 119.266 61.279 119.266 77.0095ZM71.9819 77.0095C67.2965 84.3251 78.3632 94.3452 86.2351 94.3452C94.1069 94.3452 97.3566 77.0095 103.769 79.3151C106.375 71.2991 97.1562 55.0665 86.2351 62.7563C69.9017 58.8742 75.5129 68.8943 71.9819 77.0095Z" fill="url(#paint1_radial_3300_34)"/>
</g>
<rect id="Rectangle 171" x="69.207" y="56.2695" width="1.56722" height="4.23154" rx="0.783612" transform="rotate(-73.0812 69.207 56.2695)" fill="#03965F"/>
<rect id="Rectangle 175" x="67.832" y="50.1606" width="1.56722" height="4.23154" rx="0.783612" transform="rotate(28.4652 67.832 50.1606)" fill="#02A5ED"/>
<rect id="Rectangle 172" x="67.1562" y="57.9261" width="1.56722" height="4.23154" rx="0.783612" transform="rotate(-45.0428 67.1562 57.9261)" fill="#F05938"/>
<rect id="Rectangle 176" x="84.1133" y="51.9993" width="1.56722" height="4.23154" rx="0.783612" transform="rotate(-45.0428 84.1133 51.9993)" fill="#FC75D4"/>
<rect id="Rectangle 177" x="81.9062" y="51.6296" width="1.56722" height="4.23154" rx="0.783612" transform="rotate(16.381 81.9062 51.6296)" fill="#F05938"/>
<rect id="Rectangle 179" x="65.8125" y="60.916" width="1.56722" height="4.23154" rx="0.783612" transform="rotate(16.381 65.8125 60.916)" fill="#FEE87A"/>
<rect id="Rectangle 181" x="104.16" y="55.0394" width="1.56722" height="6.04944" rx="0.783612" transform="rotate(54.944 104.16 55.0394)" fill="#FEE87A"/>
<rect id="Rectangle 180" x="77.6914" y="50.485" width="1.56722" height="4.23154" rx="0.783612" transform="rotate(65.6429 77.6914 50.485)" fill="#F05938"/>
<rect id="Rectangle 189" x="62.6797" y="72.5752" width="1.56722" height="4.23154" rx="0.783612" transform="rotate(-134.272 62.6797 72.5752)" fill="#02A5ED"/>
<rect id="Rectangle 190" x="56.6641" y="70.8383" width="1.56722" height="4.23154" rx="0.783612" transform="rotate(-32.7257 56.6641 70.8383)" fill="#03965F"/>
<rect id="Rectangle 191" x="63.1406" y="75.1711" width="1.56722" height="4.23154" rx="0.783612" transform="rotate(-106.234 63.1406 75.1711)" fill="#FC75D4"/>
<rect id="Rectangle 192" x="65.1133" y="77.7894" width="1.56722" height="4.23154" rx="0.783612" transform="rotate(-44.8099 65.1133 77.7894)" fill="#F05938"/>
<rect id="Rectangle 193" x="61.6992" y="62.3551" width="1.56722" height="4.23154" rx="0.783612" transform="rotate(4.45206 61.6992 62.3551)" fill="#F05938"/>
<rect id="Rectangle 202" x="62.5391" y="84.5679" width="1.56722" height="4.23154" rx="0.783612" transform="rotate(-130.106 62.5391 84.5679)" fill="#03965F"/>
<rect id="Rectangle 203" x="56.6641" y="82.3988" width="1.56722" height="4.23154" rx="0.783612" transform="rotate(-28.5595 56.6641 82.3988)" fill="#03965F"/>
<rect id="Rectangle 204" x="62.8125" y="87.1897" width="1.56722" height="4.23154" rx="0.783612" transform="rotate(-102.068 62.8125 87.1897)" fill="#F05938"/>
<rect id="Rectangle 205" x="64.5859" y="89.9447" width="1.56722" height="4.23154" rx="0.783612" transform="rotate(-40.6437 64.5859 89.9447)" fill="#FEE87A"/>
<rect id="Rectangle 206" x="72.6641" y="98.9205" width="1.56722" height="4.23154" rx="0.783612" transform="rotate(168.703 72.6641 98.9205)" fill="#02A5ED"/>
<rect id="Rectangle 208" x="75.0898" y="99.9442" width="1.56722" height="4.23154" rx="0.783612" transform="rotate(-163.258 75.0898 99.9442)" fill="#F05938"/>
<rect id="Rectangle 209" x="78.3633" y="99.715" width="1.56722" height="4.23154" rx="0.783612" transform="rotate(-101.835 78.3633 99.715)" fill="#FEE87A"/>
<rect id="Rectangle 210" x="63.5547" y="94.181" width="1.56722" height="4.23154" rx="0.783612" transform="rotate(-52.5726 63.5547 94.181)" fill="#F05938"/>
<rect id="Rectangle 178" x="87.5898" y="47.672" width="1.56722" height="4.23154" rx="0.783612" transform="rotate(-8.50397 87.5898 47.672)" fill="#F05938"/>
<rect id="Rectangle 173" x="94.3516" y="53.5923" width="1.56722" height="4.23154" rx="0.783612" transform="rotate(-146.668 94.3516 53.5923)" fill="#FC75D4"/>
<rect id="Rectangle 174" x="93.043" y="55.5482" width="1.56722" height="4.23154" rx="0.783612" transform="rotate(157.992 93.043 55.5482)" fill="#F05938"/>
<rect id="Rectangle 197" x="88.4531" y="99.0253" width="1.56722" height="4.23154" rx="0.783612" transform="rotate(-45.4068 88.4531 99.0253)" fill="#FEE87A"/>
<rect id="Rectangle 198" x="86.2461" y="98.6694" width="1.56722" height="4.23154" rx="0.783612" transform="rotate(16.017 86.2461 98.6694)" fill="#F05938"/>
<rect id="Rectangle 199" x="91.9023" y="94.675" width="1.56722" height="4.23154" rx="0.783612" transform="rotate(-8.86791 91.9023 94.675)" fill="#02A5ED"/>
<rect id="Rectangle 200" x="98.7031" y="100.553" width="1.56722" height="4.23154" rx="0.783612" transform="rotate(-147.032 98.7031 100.553)" fill="#FEE87A"/>
<rect id="Rectangle 201" x="97.4062" y="102.517" width="1.56722" height="4.23154" rx="0.783612" transform="rotate(157.628 97.4062 102.517)" fill="#F05938"/>
<rect id="Rectangle 184" x="109.77" y="79.9482" width="1.56722" height="4.23154" rx="0.783612" transform="rotate(-118.928 109.77 79.9482)" fill="#F05938"/>
<rect id="Rectangle 185" x="108.805" y="81.9647" width="1.56722" height="4.23154" rx="0.783612" transform="rotate(-57.504 108.805 81.9647)" fill="#02A5ED"/>
<rect id="Rectangle 186" x="106.578" y="75.4075" width="1.56722" height="4.23154" rx="0.783612" transform="rotate(-82.3889 106.578 75.4075)" fill="#FC75D4"/>
<rect id="Rectangle 187" x="114.141" y="70.5547" width="1.56722" height="4.23154" rx="0.783612" transform="rotate(139.447 114.141 70.5547)" fill="#FEE87A"/>
<rect id="Rectangle 183" x="106.578" y="65.2346" width="1.56722" height="4.23154" rx="0.783612" transform="rotate(-142.823 106.578 65.2346)" fill="#FEE87A"/>
<rect id="Rectangle 182" x="106.578" y="59.7968" width="1.56722" height="4.23154" rx="0.783612" transform="rotate(100.354 106.578 59.7968)" fill="#F05938"/>
<rect id="Rectangle 194" x="103.805" y="84.2379" width="1.56722" height="6.04944" rx="0.783612" transform="rotate(54.944 103.805 84.2379)" fill="#FEE87A"/>
<rect id="Rectangle 195" x="106.223" y="94.4336" width="1.56722" height="4.23154" rx="0.783612" transform="rotate(-142.823 106.223 94.4336)" fill="#F05938"/>
<rect id="Rectangle 196" x="106.223" y="88.9957" width="1.56722" height="4.23154" rx="0.783612" transform="rotate(100.354 106.223 88.9957)" fill="#F05938"/>
</g>
</g>
</g>
<defs>
<filter id="filter0_f_3300_34" x="50.1406" y="39.5948" width="73.9336" height="76.1619" filterUnits="userSpaceOnUse" color-interpolation-filters="sRGB">
<feFlood flood-opacity="0" result="BackgroundImageFix"/>
<feBlend mode="normal" in="SourceGraphic" in2="BackgroundImageFix" result="shape"/>
<feGaussianBlur stdDeviation="2" result="effect1_foregroundBlur_3300_34"/>
</filter>
<radialGradient id="paint0_radial_3300_34" cx="0" cy="0" r="1" gradientUnits="userSpaceOnUse" gradientTransform="translate(86.2337 77.0092) rotate(90) scale(37.2298)">
<stop stop-color="#9D7D60"/>
<stop offset="1" stop-color="#E0BB97"/>
</radialGradient>
<radialGradient id="paint1_radial_3300_34" cx="0" cy="0" r="1" gradientUnits="userSpaceOnUse" gradientTransform="translate(87.1078 77.6758) rotate(90) scale(45.2218 43.744)">
<stop stop-color="#98CAC4"/>
<stop offset="0.539261" stop-color="white"/>
<stop offset="0.895785" stop-color="#BDC7C5"/>
</radialGradient>
</defs>
</svg>
