<svg width="90" height="96" viewBox="0 0 90 96" fill="none" xmlns="http://www.w3.org/2000/svg">
<path d="M80.8858 74.8714C86.9938 89.3675 82.0257 105.299 63.2351 113.216C44.4446 121.134 29.5734 113.562 23.4653 99.0659C17.3573 84.5698 27.7134 73.2254 43.5696 66.5442C59.4258 59.8631 74.7777 60.3753 80.8858 74.8714Z" fill="url(#paint0_diamond_2158_12202)"/>
<path d="M50.4974 55.4991L47.6095 62.4794C47.6095 62.4794 51.4378 59.9151 54.1485 58.7718C56.8673 57.6251 61.3899 56.6729 61.3899 56.6729L49.3281 66.5582L59.721 67.668L44.0711 71.655L37.1203 80.2099L37.7644 72.3912L24.5533 73.5665L34.3201 69.4513L27.3566 66.7591C30.3717 66.4072 32.418 65.5795 34.7782 65.304C36.687 65.0812 38.8829 65.4136 41.3213 65.129C41.3213 65.129 43.2208 62.197 44.7377 60.5071C45.7987 59.3252 46.5229 58.7618 47.6667 57.6435C48.8105 56.5251 50.4974 55.4991 50.4974 55.4991Z" fill="url(#paint1_diamond_2158_12202)"/>
<path d="M73.9561 44.8186C73.7701 47.2954 73.7291 51.2094 73.7291 51.2094C73.7291 51.2094 73.2668 51.6904 72.8873 51.8726C71.2477 52.6598 70.2702 49.9545 68.4245 49.1773C64.1165 47.3632 61.414 50.3772 57.0404 48.8296C54.6665 47.9896 51.1528 48.1659 51.261 45.7003C51.3118 44.5435 52.3674 44.3642 52.6696 43.2827C53.963 38.6522 42.9961 42.7146 40.7073 37.9961C39.5318 35.5728 40.1974 33.9611 39.9764 31.3792C39.7784 29.0654 39.2303 27.6748 39.6021 25.4622C40.2237 21.7631 41.0211 18.0359 44.7081 17.8425C46.9551 17.7247 48.0546 19.7531 50.3306 20.278C55.2084 21.403 57.7674 15.0565 62.2062 17.7864C65.6505 19.9046 64.4502 24.091 67.4407 26.903C70.2902 29.5823 73.8628 28.13 76.1709 31.3035C79.5772 35.987 74.3612 39.4209 73.9561 44.8186Z" fill="url(#paint2_diamond_2158_12202)"/>
<path d="M88.2752 60.1635L63.9397 67.6834L64.2893 68.362C67.5258 74.3263 73.7403 77.6248 79.5253 75.9621C85.1679 74.3403 88.6504 68.5018 88.4244 61.9307L88.2752 60.1635Z" fill="url(#paint3_diamond_2158_12202)"/>
<path d="M83.8116 106.003C83.0517 103.359 84.234 100.699 86.4522 100.061C88.6704 99.4238 91.0847 101.05 91.8446 103.694C91.9259 103.977 91.985 104.26 92.0229 104.541L88.4244 61.9307C88.6504 68.5018 85.1679 74.3403 79.5253 75.9621C73.7403 77.6248 67.5258 74.3263 64.2893 68.362L84.2206 107.045C84.0555 106.72 83.9175 106.371 83.8116 106.003Z" fill="url(#paint4_diamond_2158_12202)"/>
<path d="M86.4522 100.061C84.234 100.699 83.0517 103.359 83.8116 106.003C83.9175 106.371 84.0555 106.72 84.2206 107.045L84.2538 107.11L92.0506 104.869L92.0229 104.541C91.985 104.26 91.9259 103.977 91.8446 103.694C91.0847 101.05 88.6704 99.4238 86.4522 100.061Z" fill="url(#paint5_diamond_2158_12202)"/>
<path fill-rule="evenodd" clip-rule="evenodd" d="M87.7201 57.5237C87.9736 58.4057 88.1575 59.2882 88.2752 60.1635L63.9397 67.6834C63.4801 66.7427 63.0929 65.7419 62.7903 64.6891C60.432 56.4845 63.0857 53.7887 72.3837 51.1162C81.6817 48.4437 85.3619 49.3191 87.7201 57.5237ZM63.9397 67.6834L64.2893 68.362C64.1685 68.1395 64.0519 67.9132 63.9397 67.6834ZM88.4244 61.9307L88.2752 60.1635C88.355 60.7567 88.4044 61.3466 88.4244 61.9307ZM84.2206 107.045L84.2538 107.11C84.2427 107.088 84.2316 107.067 84.2206 107.045Z" fill="url(#paint6_diamond_2158_12202)"/>
<path d="M92.0506 104.869L84.2538 107.11C84.5031 107.586 84.8109 108.012 85.1611 108.375C86.2586 109.515 87.7721 110.047 89.204 109.635C91.1848 109.066 92.3395 106.884 92.0229 104.541L92.0506 104.869Z" fill="url(#paint7_diamond_2158_12202)"/>
<defs>
<radialGradient id="paint0_diamond_2158_12202" cx="0" cy="0" r="1" gradientUnits="userSpaceOnUse" gradientTransform="translate(50.3618 82.6641) rotate(67.1515) scale(62.4007 277.127)">
<stop stop-color="#B40000"/>
<stop offset="0.860606" stop-color="white"/>
</radialGradient>
<radialGradient id="paint1_diamond_2158_12202" cx="0" cy="0" r="1" gradientUnits="userSpaceOnUse" gradientTransform="translate(44.0764 67.7418) rotate(67.1515) scale(30.6676 12.891)">
<stop stop-color="#99C96A"/>
<stop offset="1" stop-color="#C9E36E"/>
</radialGradient>
<radialGradient id="paint2_diamond_2158_12202" cx="0" cy="0" r="1" gradientUnits="userSpaceOnUse" gradientTransform="translate(55.2891 24.9683) rotate(61.4758) scale(63.9127 237.753)">
<stop stop-color="#99C96A"/>
<stop offset="1" stop-color="#08530D"/>
</radialGradient>
<radialGradient id="paint3_diamond_2158_12202" cx="0" cy="0" r="1" gradientUnits="userSpaceOnUse" gradientTransform="translate(69.8313 42.2595) rotate(73.1571) scale(90.1622 58.6331)">
<stop stop-color="#FFB067"/>
<stop offset="1" stop-color="#EC722D"/>
</radialGradient>
<radialGradient id="paint4_diamond_2158_12202" cx="0" cy="0" r="1" gradientUnits="userSpaceOnUse" gradientTransform="translate(69.8313 42.2595) rotate(73.1571) scale(90.1622 58.6331)">
<stop stop-color="#FFB067"/>
<stop offset="1" stop-color="#EC722D"/>
</radialGradient>
<radialGradient id="paint5_diamond_2158_12202" cx="0" cy="0" r="1" gradientUnits="userSpaceOnUse" gradientTransform="translate(69.8313 42.2595) rotate(73.1571) scale(90.1622 58.6331)">
<stop stop-color="#FFB067"/>
<stop offset="1" stop-color="#EC722D"/>
</radialGradient>
<radialGradient id="paint6_diamond_2158_12202" cx="0" cy="0" r="1" gradientUnits="userSpaceOnUse" gradientTransform="translate(69.8313 42.2595) rotate(73.1571) scale(90.1622 58.6331)">
<stop stop-color="#FFB067"/>
<stop offset="1" stop-color="#EC722D"/>
</radialGradient>
<radialGradient id="paint7_diamond_2158_12202" cx="0" cy="0" r="1" gradientUnits="userSpaceOnUse" gradientTransform="translate(69.8313 42.2595) rotate(73.1571) scale(90.1622 58.6331)">
<stop stop-color="#FFB067"/>
<stop offset="1" stop-color="#EC722D"/>
</radialGradient>
</defs>
</svg>
