<svg width="20" height="19" viewBox="0 0 20 19" fill="none" xmlns="http://www.w3.org/2000/svg">
<path d="M6.79601 7.26047C7.96236 6.14399 7.97734 4.31926 6.82947 3.18481C5.6816 2.05036 3.80555 2.03579 2.6392 3.15227C1.47286 4.26874 1.45788 6.09348 2.60575 7.22793C3.75362 8.36238 5.62966 8.37695 6.79601 7.26047Z" stroke="currentColor" stroke-width="1.5" stroke-linecap="round" stroke-linejoin="round"/>
<path d="M18.3092 4.9932L8.44141 5.00562" stroke="currentColor" stroke-width="1.5" stroke-linecap="round" stroke-linejoin="round"/>
<path d="M13.27 11.1925C12.0977 12.303 12.0728 14.1276 13.2146 15.2679C14.3563 16.4082 16.2323 16.4323 17.4046 15.3218C18.577 14.2113 18.6018 12.3867 17.46 11.2464C16.3183 10.1061 14.4424 10.0819 13.27 11.1925Z" stroke="currentColor" stroke-width="1.5" stroke-linecap="round" stroke-linejoin="round"/>
<path d="M1.80048 13.4265L11.6094 13.438" stroke="currentColor" stroke-width="1.5" stroke-linecap="round" stroke-linejoin="round"/>
</svg>
