<svg width="122" height="22" viewBox="0 0 122 22" fill="none" xmlns="http://www.w3.org/2000/svg">
<path d="M47.25 1.45113H49.793V4.15789C49.793 4.15789 51.2889 1 54.8791 1C59.666 1 61.7603 4.7594 61.7603 8.96993C61.7603 13.1805 59.666 16.9398 54.8791 16.9398C51.2889 16.9398 49.793 13.782 49.793 13.782V21H47.25V1.45113ZM49.793 8.96993C49.793 13.0301 51.8873 15.1353 54.4303 15.1353C56.9734 15.1353 59.0676 13.3308 59.0676 8.96993C59.0676 4.60902 56.9734 2.80451 54.4303 2.80451C51.8873 2.80451 49.793 4.90978 49.793 8.96993Z" fill="#285446" stroke="#285446" stroke-miterlimit="10"/>
<path d="M62.8086 8.96992C62.8086 4.60902 65.202 1 69.9889 1C74.9254 1 76.8701 4.7594 76.8701 8.36842V9.57143H65.5012C65.6807 13.5113 67.7152 15.1353 70.1385 15.1353C72.0832 15.1353 73.7287 14.0827 74.1774 11.9774H76.7205C76.1221 14.8346 73.8783 16.9398 70.1385 16.9398C65.202 16.9398 62.8086 13.3308 62.8086 8.96992ZM65.5611 7.76692H74.1774C74.1774 4.30827 72.2627 2.80451 69.9889 2.80451C67.6867 2.80451 65.8916 4.2782 65.5611 7.76692Z" fill="#285446" stroke="#285446" stroke-miterlimit="10"/>
<path d="M78.5156 1.44727H91.3804V16.4849H88.8373V3.40215H81.0587V16.4849H78.5156V1.44727Z" fill="#285446" stroke="#285446" stroke-miterlimit="10"/>
<path d="M93.4766 16.4849V1.44727H96.0196V9.26682L103.35 1.44727H106.192L100.418 7.49238L106.491 16.4849H103.499L98.7721 9.23674L96.0196 12.124V16.4849H93.4766Z" fill="#285446" stroke="#285446" stroke-miterlimit="10"/>
<path d="M106.492 12.4286C106.492 9.87218 108.138 7.76692 113.224 7.76692C116.664 7.76692 116.963 6.56391 116.963 5.3609C116.963 3.55639 115.617 2.80451 113.224 2.80451C110.681 2.80451 109.334 3.85714 109.334 5.96241H106.791C106.791 2.50376 109.484 1 113.224 1C117.263 1 119.507 2.50376 119.507 5.96241V12.8797C119.507 14.0827 119.507 14.8346 121.002 14.6842V16.4887C120.559 16.5805 120.109 16.6309 119.656 16.6391C118.16 16.6391 116.963 16.3383 116.963 14.3835V13.9323C116.963 13.9323 115.468 16.9398 111.728 16.9398C108.287 16.9398 106.492 14.985 106.492 12.4286ZM109.185 12.1278C109.185 13.9323 110.382 15.1353 112.326 15.1353C114.42 15.1353 116.963 13.6316 116.963 9.1203V8.09774C116.934 8.15789 116.275 9.27068 112.925 9.27068C111.279 9.27068 109.185 9.87218 109.185 12.1278Z" fill="#285446" stroke="#285446" stroke-miterlimit="10"/>
<path d="M40.0214 2.29122C40.0216 2.33321 40.0181 2.37513 40.011 2.41649C39.9911 2.48597 39.9722 2.55334 39.9513 2.62177C39.9387 2.66703 39.9251 2.71125 39.9115 2.75756C37.4631 10.8833 30.2291 16.9121 21.5101 17.5343C21.2829 17.5501 21.0556 17.5627 20.8253 17.5732C20.5572 17.5824 20.2874 17.5873 20.0158 17.588C19.7676 17.588 19.5225 17.588 19.2775 17.5743C19.0534 17.5669 18.8314 17.5564 18.6094 17.5395C9.85064 16.9521 2.57681 10.9075 0.120082 2.76177C0.107516 2.71967 0.0949468 2.67966 0.0844748 2.63861C0.0572477 2.54597 0.0289735 2.45123 0.0027936 2.35754C-0.0009312 2.30989 -0.0009312 2.26202 0.0027936 2.21438C0.0176707 2.0055 0.110979 1.81011 0.263813 1.66781C0.416647 1.52551 0.617577 1.44694 0.825892 1.44801C4.33801 1.44661 7.79142 2.3535 10.8541 4.08149C13.9168 5.80949 16.4858 8.30046 18.3141 11.3149C18.8338 12.171 19.2908 13.064 19.6817 13.9867C19.7132 14.058 19.7646 14.1185 19.8297 14.161C19.8947 14.2035 19.9707 14.2261 20.0482 14.2261C20.1258 14.2261 20.2017 14.2035 20.2668 14.161C20.3319 14.1185 20.3833 14.058 20.4148 13.9867C20.8077 13.057 21.2694 12.1583 21.796 11.2981C23.6064 8.31757 26.1435 5.85076 29.1671 4.13114C32.1907 2.41152 35.6009 1.49598 39.0748 1.47117H39.2905C39.4911 1.49412 39.6763 1.5903 39.8111 1.74146C39.9458 1.89263 40.0207 2.08825 40.0214 2.29122Z" fill="#285446"/>
</svg>
