<svg width="18" height="21" viewBox="0 0 18 21" fill="none" xmlns="http://www.w3.org/2000/svg">
<g id="Frame" clip-path="url(#clip0_2395_11585)">
<path id="Vector" d="M0.666667 5.56195H1.66667V16.3669C1.66667 18.9798 3.52976 20.9508 6 20.9508H12C14.4702 20.9508 16.3333 18.9798 16.3333 16.3669V5.56195H17.3333C17.5101 5.56195 17.6797 5.49295 17.8047 5.37015C17.9298 5.24734 18 5.08078 18 4.9071C18 4.73343 17.9298 4.56686 17.8047 4.44405C17.6797 4.32125 17.5101 4.25226 17.3333 4.25226H12.6667V1.63287C12.6665 1.45924 12.5962 1.29277 12.4712 1.17C12.3462 1.04722 12.1768 0.978182 12 0.978027H6C5.82324 0.978182 5.65376 1.04722 5.52877 1.17C5.40378 1.29277 5.33349 1.45924 5.33333 1.63287V4.25226H0.666667C0.489855 4.25226 0.320286 4.32125 0.195262 4.44405C0.0702374 4.56686 0 4.73343 0 4.9071C0 5.08078 0.0702374 5.24734 0.195262 5.37015C0.320286 5.49295 0.489855 5.56195 0.666667 5.56195ZM15 16.3669C15 18.2636 13.7381 19.6411 12 19.6411H6C4.2619 19.6411 3 18.2636 3 16.3669V5.56195H15V16.3669ZM6.66667 2.28772H11.3333V4.25226H6.66667V2.28772Z" fill="#979797"/>
<path id="Vector_2" d="M11.5273 9.02775L8.99873 11.5115L6.47016 9.02775C6.34513 8.90493 6.17555 8.83594 5.99873 8.83594C5.82191 8.83594 5.65233 8.90493 5.5273 9.02775C5.40227 9.15056 5.33203 9.31713 5.33203 9.49082C5.33203 9.6645 5.40227 9.83107 5.5273 9.95389L8.05588 12.4376L5.5273 14.9214C5.46539 14.9822 5.41629 15.0544 5.38278 15.1338C5.34928 15.2133 5.33203 15.2984 5.33203 15.3844C5.33203 15.4704 5.34928 15.5556 5.38278 15.635C5.41629 15.7145 5.46539 15.7867 5.5273 15.8475C5.58921 15.9083 5.66271 15.9565 5.7436 15.9895C5.82449 16.0224 5.91118 16.0393 5.99873 16.0393C6.08629 16.0393 6.17298 16.0224 6.25387 15.9895C6.33476 15.9565 6.40825 15.9083 6.47016 15.8475L8.99873 13.3638L11.5273 15.8475C11.5892 15.9083 11.6627 15.9565 11.7436 15.9895C11.8245 16.0224 11.9112 16.0393 11.9987 16.0393C12.0863 16.0393 12.173 16.0224 12.2539 15.9895C12.3348 15.9565 12.4083 15.9083 12.4702 15.8475C12.5321 15.7867 12.5812 15.7145 12.6147 15.635C12.6482 15.5556 12.6654 15.4704 12.6654 15.3844C12.6654 15.2984 12.6482 15.2133 12.6147 15.1338C12.5812 15.0544 12.5321 14.9822 12.4702 14.9214L9.94159 12.4376L12.4702 9.95389C12.5952 9.83107 12.6654 9.6645 12.6654 9.49082C12.6654 9.31713 12.5952 9.15056 12.4702 9.02775C12.3451 8.90493 12.1756 8.83594 11.9987 8.83594C11.8219 8.83594 11.6523 8.90493 11.5273 9.02775Z" fill="#979797"/>
</g>
<defs>
<clipPath id="clip0_2395_11585">
<rect width="18" height="19.9728" fill="white" transform="translate(0 0.978027)"/>
</clipPath>
</defs>
</svg>
