<svg width="490" height="490" viewBox="0 0 490 490" fill="none" xmlns="http://www.w3.org/2000/svg">
<path d="M480 160.418C480.008 160.91 479.967 161.401 479.877 161.884C479.655 162.697 479.422 163.486 479.176 164.348C479.04 164.878 478.868 165.395 478.708 165.937C449.955 260.98 365.012 331.532 262.605 338.813C259.936 338.998 257.267 339.146 254.574 339.257C251.409 339.38 248.236 339.441 245.055 339.441C242.153 339.441 239.275 339.441 236.385 339.281C233.753 339.195 231.146 339.072 228.551 338.875C125.677 332.001 40.2658 261.263 11.402 165.937C11.2667 165.444 11.1191 164.976 10.9838 164.496C10.6641 163.412 10.3444 162.303 10.0369 161.207C9.98705 160.649 9.98705 160.088 10.0369 159.531C10.2088 157.086 11.3037 154.797 13.0992 153.132C14.8947 151.466 17.256 150.547 19.7033 150.563C60.9492 150.546 101.506 161.159 137.474 181.381C173.442 201.603 203.612 230.754 225.083 266.031C231.195 276.044 236.564 286.494 241.144 297.297C241.514 298.131 242.118 298.84 242.882 299.337C243.646 299.835 244.537 300.1 245.449 300.1C246.36 300.1 247.251 299.835 248.015 299.337C248.779 298.84 249.383 298.131 249.753 297.297C254.367 286.418 259.79 275.901 265.974 265.834C287.236 230.954 317.031 202.086 352.54 181.962C388.049 161.838 428.097 151.124 468.894 150.834C469.546 150.834 470.21 150.834 470.874 150.834H471.428C473.778 151.107 475.948 152.233 477.527 153.999C479.106 155.764 479.985 158.048 480 160.418Z" fill="#223932"/>
</svg>
