<svg width="17" height="18" viewBox="0 0 17 18" fill="none" xmlns="http://www.w3.org/2000/svg">
<path fill-rule="evenodd" clip-rule="evenodd" d="M7.6114 0.422675C7.68175 0.352456 7.7653 0.29675 7.85727 0.258742C7.94923 0.220735 8.04782 0.201172 8.14737 0.201172C8.24693 0.201172 8.34551 0.220735 8.43748 0.258742C8.52944 0.29675 8.61299 0.352456 8.68335 0.422675C9.47334 1.21018 9.57339 2.22791 9.51947 2.94321L9.52499 2.94062L9.59223 2.91083C10.061 2.70327 10.6473 2.46786 11.5581 2.46786C12.8549 2.46786 14.2107 2.89949 15.1885 3.93245C16.1782 4.97738 16.6869 6.5349 16.481 8.58786C16.2783 10.6071 15.4759 12.6957 14.532 14.2817C14.059 15.076 13.5334 15.7729 13.0023 16.2822C12.5057 16.7582 11.8693 17.2015 11.18 17.2015C10.2526 17.2015 9.74393 16.9567 9.33561 16.7242L9.27065 16.6867C8.9809 16.5212 8.84869 16.4457 8.52613 16.4457C8.20357 16.4457 8.07299 16.5209 7.78356 16.6863L7.71859 16.7239C7.30995 16.9564 6.80094 17.2012 5.87354 17.2012C5.18424 17.2012 4.54789 16.7579 4.05122 16.2819C3.52044 15.7729 2.99486 15.0757 2.52158 14.2814C1.57696 12.6947 0.774301 10.6068 0.572579 8.58753C0.366635 6.5349 0.875324 4.97738 1.86542 3.93245C2.84317 2.89949 4.19772 2.46786 5.49446 2.46786C6.40399 2.46786 6.99129 2.70327 7.46035 2.91083L7.52727 2.94062C7.69943 3.01704 7.83976 3.07921 7.97131 3.12584C7.98658 3.03452 7.99957 2.93673 8.00737 2.83441C8.047 2.32214 7.95507 1.83319 7.6114 1.49028C7.54096 1.42014 7.48507 1.33686 7.44695 1.24518C7.40882 1.1535 7.38919 1.05523 7.38919 0.955989C7.38919 0.856746 7.40882 0.758476 7.44695 0.666799C7.48507 0.575122 7.54096 0.491836 7.6114 0.421704V0.422675ZM2.96628 4.97026C2.34585 5.625 1.90667 6.71203 2.07981 8.43728C2.25684 10.1956 2.96953 12.074 3.82481 13.5098C4.25164 14.2264 4.69732 14.805 5.10206 15.1936C5.54123 15.6145 5.80467 15.6909 5.87354 15.6909C6.46181 15.6909 6.71096 15.5582 6.96595 15.4128L7.03839 15.3713C7.35673 15.1858 7.79201 14.9345 8.52613 14.9345C9.26025 14.9345 9.69553 15.1858 10.0142 15.3704L10.0866 15.4118C10.3416 15.5572 10.5908 15.69 11.179 15.69C11.2479 15.69 11.5113 15.6139 11.9505 15.1926C12.3549 14.804 12.8006 14.2267 13.2274 13.5088C14.0827 12.0727 14.7961 10.1943 14.9725 8.43599C15.1456 6.71073 14.7067 5.6237 14.086 4.96896C13.4542 4.30191 12.5349 3.97778 11.5578 3.97778C10.9526 3.97778 10.5917 4.12026 10.2078 4.29058L10.1103 4.33429C9.72217 4.5098 9.22192 4.73452 8.52613 4.73452C7.83034 4.73452 7.33009 4.50947 6.94257 4.33527C6.91008 4.32037 6.8776 4.30548 6.84512 4.29155C6.46116 4.12123 6.10027 3.97875 5.49511 3.97875C4.51801 3.97875 3.59873 4.30256 2.96693 4.96993L2.96628 4.97026Z" fill="currentColor"/>
</svg>
