<svg width="67" height="55" viewBox="0 0 67 55" fill="none" xmlns="http://www.w3.org/2000/svg">
<path fill-rule="evenodd" clip-rule="evenodd" d="M66.1857 27.7158L3.05078 20.7681L10.8747 13.2925C11.5612 13.6393 12.4513 13.7643 13.3692 13.5838C15.1504 13.2334 16.3616 11.8648 16.0746 10.527C15.9651 10.0164 15.6533 9.58415 15.2104 9.26423L25.1233 0.258301L66.1857 27.7158ZM35.3539 16.0883C37.5146 16.0883 39.2662 15.3133 39.2662 14.3573C39.2662 13.4012 37.5146 12.6262 35.3539 12.6262C33.1932 12.6262 31.4416 13.4012 31.4416 14.3573C31.4416 15.3133 33.1932 16.0883 35.3539 16.0883Z" fill="url(#paint0_diamond_1850_19442)"/>
<path fill-rule="evenodd" clip-rule="evenodd" d="M0.769531 29.7224C3.46151 29.5685 5.59501 27.4291 5.59501 24.8124C5.59501 23.0367 4.61251 21.4808 3.13972 20.616L66.4261 27.4847C66.4261 27.4847 66.658 37.6488 66.4261 47.4835C66.1943 57.3182 66.4261 62.8581 66.4261 62.8581L0.769531 55.2992V37.5911C2.10232 37.4436 3.13706 36.3591 3.13706 35.0432C3.13706 33.7273 2.10232 32.6428 0.769531 32.4953V29.7224Z" fill="url(#paint1_diamond_1850_19442)"/>
<ellipse cx="3.33333" cy="4.17195" rx="3.33333" ry="4.17195" transform="matrix(0.984663 -0.174464 0.189687 0.981844 40.6484 45.3574)" fill="url(#paint2_diamond_1850_19442)"/>
<ellipse cx="6.25645" cy="7.30445" rx="6.25645" ry="7.30445" transform="matrix(0.984606 -0.174788 0.190037 0.981777 47.7031 31.2961)" fill="url(#paint3_diamond_1850_19442)"/>
<defs>
<radialGradient id="paint0_diamond_1850_19442" cx="0" cy="0" r="1" gradientUnits="userSpaceOnUse" gradientTransform="translate(28.9577 13.9871) rotate(36.9188) scale(40.1554 27.056)">
<stop stop-color="#EBD088"/>
<stop offset="1" stop-color="#FFEDBE"/>
</radialGradient>
<radialGradient id="paint1_diamond_1850_19442" cx="0" cy="0" r="1" gradientUnits="userSpaceOnUse" gradientTransform="translate(26.2378 48.4954) rotate(-29.2277) scale(34.6336 59.9796)">
<stop stop-color="#F2DDA5"/>
<stop offset="1" stop-color="#E2C168"/>
</radialGradient>
<radialGradient id="paint2_diamond_1850_19442" cx="0" cy="0" r="1" gradientUnits="userSpaceOnUse" gradientTransform="translate(-0.0831931 5.21694) rotate(-18.9782) scale(6.56281 11.5961)">
<stop stop-color="#987732"/>
<stop offset="1" stop-color="#E7C877"/>
</radialGradient>
<radialGradient id="paint3_diamond_1850_19442" cx="0" cy="0" r="1" gradientUnits="userSpaceOnUse" gradientTransform="translate(-0.156148 9.13407) rotate(-17.7862) scale(12.2331 20.4438)">
<stop stop-color="#906F2C"/>
<stop offset="1" stop-color="#DAB85F"/>
</radialGradient>
</defs>
</svg>
