<svg width="68" height="73" viewBox="0 0 68 73" fill="none" xmlns="http://www.w3.org/2000/svg">
<path d="M38.2055 33.3875L37.7958 32.1039L21.7628 37.3757L21.8929 38.5948C21.8929 38.5948 19.9698 40.6201 18.9366 42.0727C16.7149 45.1963 15.6156 47.2354 14.8279 50.9868C13.9417 55.208 15.3441 62.0195 15.3441 62.0195L31.9084 112.248C31.9084 112.248 32.5248 114.668 34.4919 115.725C36.459 116.783 43.0317 116.472 48.0953 115.508C53.159 114.545 59.434 112.504 62.75 110.83C66.066 109.157 71.2775 105.111 72.0377 103.74C72.798 102.369 73.2009 100.406 72.8773 99.1698C72.5536 97.9334 57.9026 51.1518 57.1152 48.6853C56.3279 46.2188 54.3802 42.3119 51.2506 39.3599C48.4942 36.7601 46.4921 35.6222 42.8975 34.4239C41.1173 33.8305 38.2055 33.3875 38.2055 33.3875Z" fill="url(#paint0_radial_2158_20212)"/>
<path d="M42.511 6.28629L43.8906 3.92623L44.0932 3.5963C44.0932 3.5963 40.1603 3.3653 37.6606 3.61528C35.7728 3.80407 34.7253 4.0322 32.8746 4.45003C30.3348 5.02345 28.9311 5.46214 26.4854 6.35547C23.9325 7.28793 22.742 8.46596 20.1117 9.15017C18.7878 9.49457 18.0291 9.70662 16.6621 9.7595C15.7838 9.79348 15.0272 9.20954 14.4139 9.64999C13.8006 10.0904 13.9084 10.14 13.8981 10.4854C13.8879 10.8308 14.0518 12.2805 14.1978 12.3347C14.3438 12.3888 14.8721 12.276 14.8721 12.276C14.8721 12.276 16.2927 11.8225 16.6347 11.9146C16.9767 12.0066 17.1779 12.4534 17.1779 12.4534L20.5146 22.9062L30.4512 19.7342C30.4512 19.7342 27.5416 11.2516 27.5676 10.701C27.5936 10.1504 27.7972 9.38131 28.5985 8.80774C29.3998 8.23418 34.0337 7.07273 36.3359 6.76441C38.638 6.45609 42.511 6.28629 42.511 6.28629Z" fill="url(#paint1_radial_2158_20212)"/>
<path d="M19.7286 22.7457L30.8325 19.2011L31.5653 19.8487C31.5653 19.8487 33.348 19.5005 33.688 19.4591C34.0281 19.4176 34.2462 19.6704 34.3356 19.9502L34.6882 21.0549C34.6882 21.0549 35.3129 20.9472 35.5123 21.183C35.7118 21.4188 39.105 31.7345 39.105 31.7345C39.105 31.7345 35.5134 33.258 29.9898 35.0213C24.4662 36.7845 24.3109 36.6043 20.6722 37.6186C20.6722 37.6186 17.332 27.2983 17.2832 27.0021C17.2343 26.706 17.8986 26.4144 17.8986 26.4144C17.8986 26.4144 17.4744 25.2355 17.4512 25.0128C17.4281 24.7902 17.5862 24.6956 17.8671 24.5094C18.148 24.3232 19.7599 23.6172 19.7599 23.6172L19.7286 22.7457Z" fill="url(#paint2_radial_2158_20212)"/>
<defs>
<radialGradient id="paint0_radial_2158_20212" cx="0" cy="0" r="1" gradientUnits="userSpaceOnUse" gradientTransform="translate(35.897 53.1501) rotate(100.516) scale(83.5716 44.1288)">
<stop stop-color="white"/>
<stop offset="0.707938" stop-color="#EDFFFF"/>
<stop offset="1" stop-color="#E2F3FF"/>
</radialGradient>
<radialGradient id="paint1_radial_2158_20212" cx="0" cy="0" r="1" gradientUnits="userSpaceOnUse" gradientTransform="translate(32.9325 4.88116) rotate(119.44) scale(18.278 39.2162)">
<stop stop-color="#2FD2C9"/>
<stop offset="1" stop-color="#7381FD"/>
</radialGradient>
<radialGradient id="paint2_radial_2158_20212" cx="0" cy="0" r="1" gradientUnits="userSpaceOnUse" gradientTransform="translate(24.5245 17.9047) rotate(72.2959) scale(17.9679 45.9335)">
<stop offset="0.141471" stop-color="#86DFFF"/>
<stop offset="0.626917" stop-color="#7382FD"/>
</radialGradient>
</defs>
</svg>
