<svg width="72" height="70" viewBox="0 0 72 70" fill="none" xmlns="http://www.w3.org/2000/svg">
<path d="M47.4172 12.601C44.9445 12.7812 39.7886 14.127 39.2413 14.4419L17.6414 26.8647C17.6414 26.8647 15.1936 28.8755 14.0423 30.1051C12.891 31.3347 9.78774 35.0083 8.83085 36.8743C7.87396 38.7402 7.87884 39.4448 8.66019 40.8744C9.44154 42.304 37.8337 91.5993 38.902 93.4569C39.9703 95.3144 41.7585 96.1778 43.2885 96.787C44.8186 97.3962 53.0766 98.2055 58.3213 96.4654C63.5659 94.7253 63.786 94.7532 69.5929 91.4135C75.3999 88.0737 78.8512 85.3682 81.2454 82.5006C83.6395 79.6331 85.9197 74.7975 86.586 71.8853C87.2523 68.9731 86.4958 67.5755 85.8157 66.4753C85.1356 65.3752 57.0671 15.7362 55.5739 13.8929C54.0807 12.0495 49.8899 12.4208 47.4172 12.601Z" fill="url(#paint0_radial_2158_13783)"/>
<path d="M35.851 9.05035L39.6626 15.6776C39.6626 15.6776 38.6884 18.1284 30.0551 23.0937C21.3951 28.0743 18.5655 27.8112 18.5655 27.8112L14.7539 21.184C14.7539 21.184 21.9178 18.6478 26.1049 16.2252C30.1957 13.8582 35.851 9.05035 35.851 9.05035Z" fill="url(#paint1_radial_2158_13783)"/>
<path d="M35.8457 9.04054C36.3325 9.88695 32.1867 13.6062 26.3608 16.9568C20.535 20.3074 15.2354 22.0206 14.7486 21.1742C14.2618 20.3277 18.5899 16.9254 24.4158 13.5748C30.2416 10.2242 35.359 8.19414 35.8457 9.04054Z" fill="url(#paint2_radial_2158_13783)"/>
<path d="M31.9007 11.1912C32.2044 11.7193 29.5328 14.0886 25.7932 16.2393C22.0537 18.3901 18.6622 19.5078 18.3585 18.9797C18.0548 18.4516 20.8401 16.28 24.5797 14.1293C28.3193 11.9786 31.597 10.6631 31.9007 11.1912Z" fill="url(#paint3_radial_2158_13783)"/>
<defs>
<radialGradient id="paint0_radial_2158_13783" cx="0" cy="0" r="1" gradientUnits="userSpaceOnUse" gradientTransform="translate(29.3435 22.4183) rotate(60.0955) scale(79.8756 146.962)">
<stop offset="0.117403" stop-color="#FFD600"/>
<stop offset="0.258817" stop-color="#E3A325"/>
<stop offset="0.688425" stop-color="#DA9A1F"/>
<stop offset="0.879361" stop-color="#AE7301"/>
</radialGradient>
<radialGradient id="paint1_radial_2158_13783" cx="0" cy="0" r="1" gradientUnits="userSpaceOnUse" gradientTransform="translate(23.3278 17.8862) rotate(27.5537) scale(15.7369 41.2536)">
<stop stop-color="#E0E0E0"/>
<stop offset="1" stop-color="#FFAF38"/>
</radialGradient>
<radialGradient id="paint2_radial_2158_13783" cx="0" cy="0" r="1" gradientUnits="userSpaceOnUse" gradientTransform="translate(24.7223 14.1077) rotate(48.0172) scale(2.75645 17.195)">
<stop stop-color="white"/>
<stop offset="1" stop-color="#FFF4F1"/>
</radialGradient>
<radialGradient id="paint3_radial_2158_13783" cx="0" cy="0" r="1" gradientUnits="userSpaceOnUse" gradientTransform="translate(24.5797 14.1293) rotate(60.0955) scale(5.06082 32.4804)">
<stop offset="0.174189" stop-color="#F0C78A"/>
<stop offset="0.717172" stop-color="#BEBEBE"/>
</radialGradient>
</defs>
</svg>
