<svg width="16" height="16" viewBox="0 0 16 16" fill="none" xmlns="http://www.w3.org/2000/svg">
<g clip-path="url(#clip0_2158_10900)">
<path d="M12.8291 8.53445C12.6119 8.53514 12.4038 8.62316 12.2502 8.77929C12.0966 8.93542 12.01 9.14698 12.0093 9.36779V13.5345H3.8113V9.36779C3.8136 9.25689 3.79411 9.14665 3.75395 9.04352C3.7138 8.94038 3.6538 8.84644 3.57746 8.76718C3.50112 8.68793 3.40999 8.62496 3.3094 8.58197C3.20881 8.53899 3.10079 8.51685 2.99168 8.51685C2.88256 8.51685 2.77454 8.53899 2.67396 8.58197C2.57337 8.62496 2.48224 8.68793 2.4059 8.76718C2.32956 8.84644 2.26956 8.94038 2.2294 9.04352C2.18925 9.14665 2.16975 9.25689 2.17206 9.36779V14.3678C2.17264 14.5886 2.25914 14.8001 2.41268 14.9563C2.56622 15.1124 2.77431 15.2004 2.9915 15.2011H12.8291C13.0464 15.2004 13.2545 15.1124 13.4081 14.9563C13.5617 14.8002 13.6483 14.5886 13.6489 14.3678V9.36779C13.6483 9.14698 13.5617 8.93542 13.4081 8.77929C13.2545 8.62316 13.0464 8.53514 12.8291 8.53445Z" fill="currentColor"/>
<path d="M15.1255 3.82617L14.0597 1.22201C13.8138 0.595517 13.1989 0.201172 12.5431 0.201172H3.25883C2.93549 0.201791 2.61944 0.298845 2.34985 0.480305C2.08026 0.661765 1.86897 0.919652 1.74219 1.22201L0.676445 3.82617H0.696574C0.471128 4.51367 0.409643 5.26367 0.901891 6.13867C1.41427 7.01367 2.29519 7.65951 3.29982 7.70117H3.38143C4.30371 7.70117 5.10155 7.24284 5.63626 6.57617C6.16913 7.26367 6.96807 7.70117 7.89071 7.70117C8.81336 7.70117 9.61084 7.24284 10.1452 6.57617C10.678 7.26367 11.4774 7.70117 12.3996 7.70117H12.4816C13.4859 7.68034 14.3877 7.03451 14.8795 6.13867C15.4124 5.28302 15.3509 4.51367 15.1255 3.82617ZM13.4859 5.30534C13.2399 5.74284 12.83 6.01218 12.4201 6.0345C12.0512 6.0345 11.7028 5.84849 11.4569 5.5345C11.3035 5.33481 11.1077 5.17298 10.8841 5.06113C10.6605 4.94929 10.4149 4.89033 10.1657 4.88867C9.91568 4.8857 9.66851 4.94263 9.44419 5.05483C9.21987 5.16703 9.0247 5.33136 8.87448 5.5345C8.62854 5.847 8.28012 6.0345 7.91121 6.0345C7.5423 6.0345 7.19388 5.84849 6.94794 5.5345C6.7946 5.33481 6.59879 5.17298 6.37518 5.06113C6.15157 4.94929 5.90596 4.89033 5.65675 4.88867C5.40676 4.8857 5.1596 4.94263 4.93527 5.05483C4.71095 5.16703 4.51578 5.33136 4.36556 5.5345C4.2472 5.69066 4.09504 5.817 3.92087 5.90372C3.74671 5.99043 3.55523 6.03518 3.3613 6.0345C2.97189 6.01367 2.58249 5.74284 2.33655 5.30534C2.15355 4.97052 2.1316 4.74284 2.25457 4.36784C2.27121 4.33588 2.27834 4.29968 2.27506 4.26367L3.25883 1.86784H12.5431L13.5269 4.28599C13.5269 4.32766 13.5474 4.34849 13.5474 4.39016C13.6908 4.74433 13.6703 4.97349 13.4859 5.30683V5.30534Z" fill="currentColor"/>
</g>
<defs>
<clipPath id="clip0_2158_10900">
<rect width="14.7638" height="15" fill="white" transform="translate(0.527344 0.201172)"/>
</clipPath>
</defs>
</svg>
