<svg width="60" height="68" viewBox="0 0 60 68" fill="none" xmlns="http://www.w3.org/2000/svg">
<path d="M55.4086 70.9167C53.1891 75.2167 56.8663 78.4724 56.8663 78.4724C56.8663 78.4724 44.6686 81.6247 43.8493 81.6624C40.3097 81.8254 44.8876 77.3201 42.1695 74.5207C35.8254 67.9869 28.6838 71.3339 22.0191 65.228C18.4017 61.9139 11.9664 59.5543 14.0381 55.2152C15.0101 53.1793 17.0397 53.6617 18.4051 51.9522C24.251 44.6334 5.07843 40.6073 0.979044 33.3621C-1.60505 28.7951 5.01724 25.9786 4.70739 20.9395C4.28396 14.0531 1.73506 5.89819 8.54219 10.0435C11.4646 11.8231 8.92133 -0.136071 14.5072 2.31333C20.093 4.76273 19.907 -1.04148 23.5016 0.267304C27.6207 1.76707 28.0478 6.24199 31.7297 8.91656C35.1539 11.404 37.7976 3.41888 41.8203 11.745C48.0877 18.2721 51.5947 8.80727 54.9237 13.4917C59.4873 19.9132 54.1466 26.5068 57.3681 33.8268C60.4377 40.8016 65.2363 31.7119 64.1038 38.7369C63.2301 44.1564 58.2952 44.9404 60.9499 55.4166C64.3126 61.0147 57.8924 66.1048 55.4086 70.9167Z" fill="url(#paint0_diamond_2158_13763)"/>
<defs>
<radialGradient id="paint0_diamond_2158_13763" cx="0" cy="0" r="1" gradientUnits="userSpaceOnUse" gradientTransform="translate(48.7659 75.6779) rotate(154.551) scale(38.2481 142.282)">
<stop stop-color="#FFFFBA"/>
<stop offset="0.781368" stop-color="#1A6720"/>
</radialGradient>
</defs>
</svg>
