<svg width="111" height="101" viewBox="0 0 111 101" fill="none" xmlns="http://www.w3.org/2000/svg">
<g id="Mask group">
<g id="Mask group_2">
<mask id="mask0_3300_7513" style="mask-type:alpha" maskUnits="userSpaceOnUse" x="0" y="0" width="111" height="101">
<rect id="Rectangle 154" x="0.527344" y="0.201172" width="110" height="100" rx="15" fill="#D9D9D9"/>
</mask>
<g mask="url(#mask0_3300_7513)">
<g id="Group 345">
<path id="Vector 120" d="M89.0851 40.8815C89.0589 40.4157 90.293 37.2496 90.293 37.2496C74.2309 41.0154 65.136 44.3299 48.717 52.1872C48.717 52.1872 51.6396 53.6459 51.859 54.2564L53.0584 57.5947C53.2381 58.095 52.3621 67.9745 52.4 68.796C52.4379 69.6174 71.1815 122.894 71.1815 122.894C71.1815 122.894 73.1975 127.17 74.9639 128.419C76.4953 129.503 77.1148 130.37 79.7239 130.707C82.333 131.044 91.8338 127.881 99.4043 125.235C106.361 122.803 113.597 119.772 115.82 117.738C118.044 115.703 118.343 114.712 118.664 112.718C118.963 110.868 117.688 106.185 117.688 106.185C117.688 106.185 99.0883 53.4816 98.3258 52.2955C97.5632 51.1094 90.4874 44.7845 90.2845 44.2198C90.0816 43.6551 89.1114 41.3474 89.0851 40.8815Z" fill="url(#paint0_radial_3300_7513)"/>
<g id="Group 344">
<path id="Ellipse 6" d="M78.8067 54.7113C83.3707 60.2676 83.2684 67.895 76.066 73.811C68.8637 79.7271 61.3617 78.346 56.7977 72.7897C52.2337 67.2334 55.2941 60.9141 61.3717 55.9219C67.4493 50.9297 74.2427 49.155 78.8067 54.7113Z" fill="url(#paint1_diamond_3300_7513)"/>
<path id="Vector 2" d="M63.4671 55.2592L63.3207 56.67C63.3207 56.67 63.8726 56.0037 64.2993 55.6529C64.7273 55.3011 65.4903 54.8879 65.4903 54.8879L63.8482 57.3121L65.7781 56.956L63.1747 58.5106L62.3813 60.4221L62.079 58.9805L59.7641 59.8986L61.3018 58.6356L59.9046 58.5235C60.4284 58.2989 60.7524 58.0405 61.1625 57.8647C61.4941 57.7225 61.9071 57.6648 62.3307 57.4832C62.3307 57.4832 62.5157 56.8539 62.6984 56.4686C62.8261 56.1991 62.9263 56.059 63.0723 55.7966C63.2184 55.5341 63.4671 55.2592 63.4671 55.2592Z" fill="url(#paint2_diamond_3300_7513)"/>
<path id="Ellipse 7" d="M99.8909 63.9125C98.4096 70.88 92.5387 75.3877 83.6924 73.2271C74.8461 71.0666 71.3769 64.2778 72.8582 57.3103C74.3395 50.3428 80.9968 48.9714 88.4617 50.7945C95.9265 52.6177 101.372 56.945 99.8909 63.9125Z" fill="url(#paint3_diamond_3300_7513)"/>
<path id="Vector 3" d="M90.2295 52.0595L89.0668 52.792C89.0668 52.792 89.9068 52.8294 90.4311 52.9573C90.957 53.0855 91.7316 53.4429 91.7316 53.4429L88.8956 53.5973L90.3299 54.9156L87.5769 53.7834L85.6429 54.3034L86.5587 53.196L84.4644 51.91L86.3531 52.3713L85.5963 51.1942C86.0831 51.475 86.4752 51.5769 86.8562 51.7968C87.1644 51.9746 87.4571 52.2679 87.8508 52.495C87.8508 52.495 88.4416 52.2634 88.8451 52.1766C89.1273 52.116 89.2944 52.1112 89.5823 52.0693C89.8702 52.0274 90.2295 52.0595 90.2295 52.0595Z" fill="url(#paint4_diamond_3300_7513)"/>
<path id="Ellipse 9" d="M97.273 92.3599C89.7895 93.8995 82.836 90.0682 81.1561 80.4464C79.4762 70.8245 84.656 64.4969 92.1396 62.9573C99.6231 61.4176 103.833 67.37 105.25 75.4893C106.668 83.6086 104.757 90.8202 97.273 92.3599Z" fill="url(#paint5_diamond_3300_7513)"/>
<path id="Vector 5" d="M104.765 77.7701L103.546 76.9425C103.546 76.9425 103.87 77.784 103.97 78.3542C104.07 78.9261 104.052 79.8409 104.052 79.8409L102.681 77.1204L102.002 79.0966L101.931 75.9046L100.588 74.2276L102.07 74.6515L102.434 72.0406L102.792 74.0949L103.624 72.8452C103.557 73.4443 103.626 73.8734 103.573 74.3423C103.531 74.7216 103.369 75.1354 103.315 75.6199C103.315 75.6199 103.796 76.1008 104.055 76.46C104.236 76.7113 104.312 76.8735 104.477 77.1384C104.642 77.4033 104.765 77.7701 104.765 77.7701Z" fill="url(#paint6_diamond_3300_7513)"/>
<path id="Ellipse 10" d="M111.929 97.9198C117.138 103.51 117.484 111.441 110.141 117.882C102.798 124.323 94.6997 123.192 89.4911 117.602C84.2825 112.013 87.1753 105.321 93.3714 99.8854C99.5675 94.4502 106.721 92.3302 111.929 97.9198Z" fill="url(#paint7_diamond_3300_7513)"/>
<path id="Vector 6" d="M95.5702 99.1113L95.498 100.584C95.498 100.584 96.0479 99.8686 96.4829 99.4867C96.9192 99.1037 97.7099 98.6433 97.7099 98.6433L96.1 101.23L98.1409 100.781L95.4519 102.502L94.7182 104.521L94.3091 103.035L91.8905 104.083L93.4581 102.708L91.9584 102.649C92.5047 102.394 92.8355 102.112 93.2632 101.913C93.609 101.751 94.0469 101.675 94.4887 101.469C94.4887 101.469 94.6489 100.807 94.821 100.399C94.9414 100.114 95.0401 99.9645 95.1805 99.6858C95.3209 99.4071 95.5702 99.1113 95.5702 99.1113Z" fill="url(#paint8_diamond_3300_7513)"/>
<path id="Ellipse 11" d="M110.705 94.5136C110.156 102.134 104.582 107.787 94.8653 106.794C85.1486 105.8 80.4637 99.0975 81.0123 91.477C81.5608 83.8564 88.432 81.4197 96.6314 82.2582C104.831 83.0968 111.253 86.893 110.705 94.5136Z" fill="url(#paint9_diamond_3300_7513)"/>
<path id="Vector 7" d="M98.6975 83.3421L97.57 84.2914C97.57 84.2914 98.468 84.2075 99.0438 84.2662C99.6214 84.3251 100.497 84.5908 100.497 84.5908L97.5066 85.1721L99.2244 86.3618L96.1329 85.564L94.1546 86.401L94.9647 85.0896L92.5503 84.0315L94.6248 84.2437L93.6476 83.1045C94.2061 83.3312 94.6377 83.3818 95.0749 83.5593C95.4284 83.7028 95.7827 83.9714 96.2343 84.1548C96.2343 84.1548 96.8279 83.8218 97.2439 83.6702C97.5348 83.5642 97.7116 83.5346 98.0113 83.4477C98.3111 83.3608 98.6975 83.3421 98.6975 83.3421Z" fill="url(#paint10_diamond_3300_7513)"/>
<path id="Ellipse 12" d="M100.849 113.59C100.301 121.21 94.7265 126.863 85.0098 125.87C75.2931 124.876 70.6083 118.174 71.1568 110.553C71.7054 102.932 78.5766 100.496 86.7759 101.334C94.9753 102.173 101.398 105.969 100.849 113.59Z" fill="url(#paint11_diamond_3300_7513)"/>
<path id="Ellipse 13" d="M84.3223 80.5756C91.2598 83.7765 94.5838 90.9862 90.2271 99.7281C85.8703 108.47 77.9465 110.49 71.009 107.289C64.0715 104.088 64.2147 96.7992 67.891 89.4225C71.5674 82.0457 77.3849 77.3747 84.3223 80.5756Z" fill="url(#paint12_diamond_3300_7513)"/>
<path id="Vector 9" d="M69.632 87.8734L70.1227 89.2633C70.1227 89.2633 70.3609 88.3934 70.6189 87.8752C70.8776 87.3555 71.4351 86.6299 71.4351 86.6299L70.9244 89.6332L72.6435 88.4453L70.8066 91.0568L70.8922 93.2031L69.9508 91.9826L68.1092 93.8687L69.0393 92.0023L67.6287 92.515C68.0378 92.0723 68.2373 91.6863 68.5576 91.3398C68.8167 91.0596 69.1929 90.8229 69.5238 90.4649C69.5238 90.4649 69.4215 89.792 69.4264 89.3493C69.4298 89.0397 69.4644 88.8638 69.4888 88.5527C69.5132 88.2416 69.632 87.8734 69.632 87.8734Z" fill="url(#paint13_diamond_3300_7513)"/>
<path id="Ellipse 14" d="M85.1924 86.8445C81.4479 93.5043 73.9958 96.2422 65.6296 91.2016C57.2633 86.161 55.8822 78.1011 59.6266 71.4413C63.371 64.7815 70.6254 65.506 77.6852 69.7594C84.745 74.0129 88.9368 80.1846 85.1924 86.8445Z" fill="url(#paint14_diamond_3300_7513)"/>
<path id="Vector 10" d="M79.0906 71.6197L77.666 71.9979C77.666 71.9979 78.5141 72.3048 79.01 72.6034C79.5074 72.9028 80.1862 73.5163 80.1862 73.5163L77.2332 72.7676L78.2801 74.576L75.8236 72.5366L73.6773 72.4505L74.969 71.6095L73.236 69.6233L75.0221 70.6994L74.6237 69.2523C75.0323 69.6955 75.4012 69.9252 75.721 70.2721C75.9796 70.5527 76.1856 70.9466 76.516 71.3051C76.516 71.3051 77.1949 71.2568 77.6358 71.297C77.9441 71.3251 78.1167 71.3737 78.4249 71.4228C78.7331 71.472 79.0906 71.6197 79.0906 71.6197Z" fill="url(#paint15_diamond_3300_7513)"/>
<path id="Ellipse 8" d="M95.2721 72.4547C97.5429 79.7497 94.4166 87.0474 85.0076 89.6688C75.5985 92.2902 68.7906 87.7602 66.5198 80.4652C64.249 73.1701 69.7567 68.3936 77.6965 66.1815C85.6362 63.9695 93.0013 65.1596 95.2721 72.4547Z" fill="url(#paint16_diamond_3300_7513)"/>
<path id="Vector 4" d="M80.0136 66.4377L79.3104 67.7331C79.3104 67.7331 80.1159 67.3272 80.6734 67.1717C81.2326 67.0157 82.1448 66.9434 82.1448 66.9434L79.5729 68.5762L81.6064 69.0568L78.437 69.4424L76.9007 70.9437L77.1763 69.4271L74.5423 69.3233L76.5511 68.7636L75.2255 68.0597C75.8282 68.0669 76.2484 67.9565 76.7202 67.9622C77.1018 67.9668 77.5296 68.0875 78.0171 68.0934C78.0171 68.0934 78.4482 67.5667 78.7801 67.2738C79.0122 67.0689 79.1661 66.9768 79.4134 66.7865C79.6607 66.5962 80.0136 66.4377 80.0136 66.4377Z" fill="url(#paint17_diamond_3300_7513)"/>
</g>
<path id="Vector 121" d="M89.0851 40.8815C89.0589 40.4157 90.293 37.2496 90.293 37.2496C74.2309 41.0154 65.136 44.3299 48.717 52.1872C48.717 52.1872 51.6396 53.6459 51.859 54.2564L53.0584 57.5947C53.2381 58.095 52.3621 67.9745 52.4 68.796C52.4379 69.6174 71.1815 122.894 71.1815 122.894C71.1815 122.894 73.1975 127.17 74.9639 128.419C76.4953 129.503 77.1148 130.37 79.7239 130.707C82.333 131.044 91.8338 127.881 99.4043 125.235C106.361 122.803 113.597 119.772 115.82 117.738C118.044 115.703 118.343 114.712 118.664 112.718C118.963 110.868 117.688 106.185 117.688 106.185C117.688 106.185 99.0883 53.4816 98.3258 52.2955C97.5632 51.1094 90.4874 44.7845 90.2845 44.2198C90.0816 43.6551 89.1114 41.3474 89.0851 40.8815Z" fill="url(#paint18_radial_3300_7513)"/>
<path id="Rectangle 170" d="M46.314 48.0974C45.9447 47.0596 59.3141 41.3207 68.1388 38.2516C76.2518 35.43 89.0847 31.707 89.454 32.7447C89.6355 33.2548 90.0352 34.3779 90.3948 35.3882C90.7768 36.4616 90.1913 37.6356 89.1033 37.9739C85.192 39.1901 76.3572 41.9686 70.2319 44.1329C63.4712 46.5217 53.9304 50.3108 49.887 51.9324C48.8301 52.3562 47.6372 51.8153 47.2554 50.7425C46.8957 49.7318 46.4957 48.6077 46.314 48.0974Z" fill="url(#paint19_radial_3300_7513)"/>
</g>
</g>
</g>
</g>
<defs>
<radialGradient id="paint0_radial_3300_7513" cx="0" cy="0" r="1" gradientUnits="userSpaceOnUse" gradientTransform="translate(83.2324 59.2542) rotate(79.2768) scale(76.8409 43.6256)">
<stop stop-color="#E0C2B8"/>
<stop offset="1" stop-color="#AF9967"/>
</radialGradient>
<radialGradient id="paint1_diamond_3300_7513" cx="0" cy="0" r="1" gradientUnits="userSpaceOnUse" gradientTransform="translate(66.4469 62.1005) rotate(50.6) scale(28.5237 126.676)">
<stop stop-color="#EE4B05"/>
<stop offset="0.860606" stop-color="#941111"/>
</radialGradient>
<radialGradient id="paint2_diamond_3300_7513" cx="0" cy="0" r="1" gradientUnits="userSpaceOnUse" gradientTransform="translate(62.9663 57.8061) rotate(50.6) scale(5.7581 2.4204)">
<stop stop-color="#99C96A"/>
<stop offset="1" stop-color="#C9E36E"/>
</radialGradient>
<radialGradient id="paint3_diamond_3300_7513" cx="0" cy="0" r="1" gradientUnits="userSpaceOnUse" gradientTransform="translate(86.9326 50.4143) rotate(82.5764) scale(27.2538 119.317)">
<stop stop-color="#FF5B15"/>
<stop offset="1" stop-color="#941111"/>
</radialGradient>
<radialGradient id="paint4_diamond_3300_7513" cx="0" cy="0" r="1" gradientUnits="userSpaceOnUse" gradientTransform="translate(87.988 53.1941) rotate(102.003) scale(5.70425 2.36369)">
<stop stop-color="#99C96A"/>
<stop offset="1" stop-color="#C9E36E"/>
</radialGradient>
<radialGradient id="paint5_diamond_3300_7513" cx="0" cy="0" r="1" gradientUnits="userSpaceOnUse" gradientTransform="translate(104.967 73.8232) rotate(148.948) scale(29.2323 127.978)">
<stop stop-color="#FF5B15"/>
<stop offset="1" stop-color="#941111"/>
</radialGradient>
<radialGradient id="paint6_diamond_3300_7513" cx="0" cy="0" r="1" gradientUnits="userSpaceOnUse" gradientTransform="translate(102.687 76.0551) rotate(168.374) scale(6.11834 2.53528)">
<stop stop-color="#99C96A"/>
<stop offset="1" stop-color="#C9E36E"/>
</radialGradient>
<radialGradient id="paint7_diamond_3300_7513" cx="0" cy="0" r="1" gradientUnits="userSpaceOnUse" gradientTransform="translate(92.0963 100.995) rotate(27.595) scale(29.2323 127.978)">
<stop stop-color="#FF5B15"/>
<stop offset="1" stop-color="#941111"/>
</radialGradient>
<radialGradient id="paint8_diamond_3300_7513" cx="0" cy="0" r="1" gradientUnits="userSpaceOnUse" gradientTransform="translate(95.1872 101.779) rotate(47.0211) scale(6.11834 2.53528)">
<stop stop-color="#99C96A"/>
<stop offset="1" stop-color="#C9E36E"/>
</radialGradient>
<radialGradient id="paint9_diamond_3300_7513" cx="0" cy="0" r="1" gradientUnits="userSpaceOnUse" gradientTransform="translate(94.9509 82.0793) rotate(74.6911) scale(29.2323 127.978)">
<stop stop-color="#FF5B15"/>
<stop offset="1" stop-color="#941111"/>
</radialGradient>
<radialGradient id="paint10_diamond_3300_7513" cx="0" cy="0" r="1" gradientUnits="userSpaceOnUse" gradientTransform="translate(96.4829 84.8773) rotate(94.1172) scale(6.11834 2.53528)">
<stop stop-color="#99C96A"/>
<stop offset="1" stop-color="#C9E36E"/>
</radialGradient>
<radialGradient id="paint11_diamond_3300_7513" cx="0" cy="0" r="1" gradientUnits="userSpaceOnUse" gradientTransform="translate(85.0954 101.155) rotate(74.6911) scale(29.2323 127.978)">
<stop stop-color="#FF5B15"/>
<stop offset="1" stop-color="#941111"/>
</radialGradient>
<radialGradient id="paint12_diamond_3300_7513" cx="0" cy="0" r="1" gradientUnits="userSpaceOnUse" gradientTransform="translate(67.1309 90.9319) rotate(5.34208) scale(29.2323 127.978)">
<stop stop-color="#FF5B15"/>
<stop offset="1" stop-color="#941111"/>
</radialGradient>
<radialGradient id="paint13_diamond_3300_7513" cx="0" cy="0" r="1" gradientUnits="userSpaceOnUse" gradientTransform="translate(70.2876 90.4871) rotate(24.7682) scale(6.11834 2.53528)">
<stop stop-color="#99C96A"/>
<stop offset="1" stop-color="#C9E36E"/>
</radialGradient>
<radialGradient id="paint14_diamond_3300_7513" cx="0" cy="0" r="1" gradientUnits="userSpaceOnUse" gradientTransform="translate(76.2413 68.8813) rotate(99.9203) scale(29.2323 127.978)">
<stop stop-color="#FF5B15"/>
<stop offset="1" stop-color="#941111"/>
</radialGradient>
<radialGradient id="paint15_diamond_3300_7513" cx="0" cy="0" r="1" gradientUnits="userSpaceOnUse" gradientTransform="translate(76.4329 72.0646) rotate(119.346) scale(6.11834 2.53528)">
<stop stop-color="#99C96A"/>
<stop offset="1" stop-color="#C9E36E"/>
</radialGradient>
<radialGradient id="paint16_diamond_3300_7513" cx="0" cy="0" r="1" gradientUnits="userSpaceOnUse" gradientTransform="translate(76.0666 66.6283) rotate(53.2836) scale(29.2323 127.978)">
<stop stop-color="#FF5B15"/>
<stop offset="1" stop-color="#941111"/>
</radialGradient>
<radialGradient id="paint17_diamond_3300_7513" cx="0" cy="0" r="1" gradientUnits="userSpaceOnUse" gradientTransform="translate(78.5122 68.6754) rotate(72.7098) scale(6.11834 2.53528)">
<stop stop-color="#99C96A"/>
<stop offset="1" stop-color="#C9E36E"/>
</radialGradient>
<radialGradient id="paint18_radial_3300_7513" cx="0" cy="0" r="1" gradientUnits="userSpaceOnUse" gradientTransform="translate(83.2324 59.2542) rotate(79.2768) scale(76.8409 43.6256)">
<stop offset="0.375" stop-color="#E0C2B8" stop-opacity="0.16"/>
<stop offset="1" stop-color="#EE7823"/>
</radialGradient>
<radialGradient id="paint19_radial_3300_7513" cx="0" cy="0" r="1" gradientUnits="userSpaceOnUse" gradientTransform="translate(65.5431 40.978) rotate(-20.2362) scale(18.0925 120.799)">
<stop stop-color="#97201A"/>
<stop offset="1" stop-color="#EB6F55"/>
</radialGradient>
</defs>
</svg>
